<svg xmlns="http://www.w3.org/2000/svg" xmlns:xlink="http://www.w3.org/1999/xlink" width="27.655" height="24" viewBox="0 0 27.655 24">
  <defs>
    <linearGradient id="linear-gradient" x1="0.5" x2="0.5" y2="1" gradientUnits="objectBoundingBox">
      <stop offset="0" stop-color="#84c4c6"/>
      <stop offset="1" stop-color="#00979e"/>
    </linearGradient>
  </defs>
  <g id="telegram_2_" data-name="telegram (2)" transform="translate(0 -33.833)">
    <g id="Group_27533" data-name="Group 27533" transform="translate(0 33.833)">
      <path id="Path_186149" data-name="Path 186149" d="M27.113,34.272a1.671,1.671,0,0,0-1.65-.355L1.147,41.933A1.669,1.669,0,0,0,1,45.048l6.014,2.631,1.814,8.415a.894.894,0,0,0,.629.757,1.063,1.063,0,0,0,.932-.323l4.463-3.342,5.217,4.269a1.66,1.66,0,0,0,1.054.379,1.679,1.679,0,0,0,.539-.09,1.66,1.66,0,0,0,1.089-1.2l4.859-20.66A1.671,1.671,0,0,0,27.113,34.272ZM10.778,49.186a.217.217,0,0,0-.009.024L9.763,52.726,8.641,47.519,16.36,43.23l-5.4,5.643A.812.812,0,0,0,10.778,49.186Zm.319,4.782.457-1.6.437-1.527,1.566,1.281ZM26.029,35.513,21.17,56.173a.045.045,0,0,1-.073.025l-5.709-4.672h0l-2.645-2.164,8.5-8.885a.812.812,0,0,0-.981-1.271L7.677,46.2,1.651,43.56c-.018-.008-.028-.012-.027-.044s.012-.034.031-.041L25.971,35.46a.045.045,0,0,1,.058.053Z" transform="translate(0 -33.833)" fill="url(#linear-gradient)"/>
    </g>
  </g>
</svg>
