<svg xmlns="http://www.w3.org/2000/svg" xmlns:xlink="http://www.w3.org/1999/xlink" width="23.885" height="24" viewBox="0 0 23.885 24">
  <defs>
    <linearGradient id="linear-gradient" x1="0.5" x2="0.5" y2="1" gradientUnits="objectBoundingBox">
      <stop offset="0" stop-color="#84c4c6"/>
      <stop offset="1" stop-color="#00979e"/>
    </linearGradient>
  </defs>
  <path id="whatsapp_9_" data-name="whatsapp (9)" d="M20.655,3.488A11.9,11.9,0,0,0,1.937,17.837L.25,24l6.3-1.654a11.88,11.88,0,0,0,5.683,1.448h0A11.9,11.9,0,0,0,20.655,3.488Zm-8.413,18.3h0a9.872,9.872,0,0,1-5.031-1.378l-.361-.214-3.741.981,1-3.648-.235-.374a9.885,9.885,0,1,1,8.374,4.632Zm5.422-7.4c-.3-.149-1.758-.867-2.031-.967s-.471-.149-.668.149-.768.967-.941,1.165-.347.223-.644.074a8.116,8.116,0,0,1-2.39-1.475A8.964,8.964,0,0,1,9.338,11.27c-.173-.3,0-.443.13-.606a8.406,8.406,0,0,0,.743-1.016.547.547,0,0,0-.025-.521c-.074-.149-.668-1.611-.916-2.206-.241-.579-.486-.5-.669-.51s-.371-.01-.57-.01a1.091,1.091,0,0,0-.792.372A3.333,3.333,0,0,0,6.2,9.251a5.781,5.781,0,0,0,1.213,3.074,13.246,13.246,0,0,0,5.076,4.487,17.009,17.009,0,0,0,1.694.626,4.074,4.074,0,0,0,1.872.118,3.061,3.061,0,0,0,2.006-1.413,2.483,2.483,0,0,0,.173-1.413c-.074-.124-.272-.2-.569-.347Zm0,0" transform="translate(-0.25)" fill-rule="evenodd" fill="url(#linear-gradient)"/>
</svg>
