<svg xmlns="http://www.w3.org/2000/svg" width="394.909" height="247.905" viewBox="0 0 394.909 247.905">
  <g id="Group_6910" data-name="Group 6910" transform="translate(2364.612 -1641.484)">
    <path id="Path_11144" data-name="Path 11144" d="M-2247.774,1898.455h280.031s-2.719,18.563,10.875-35.8,35.344-45.082-17.672-111.379-115.546-95.468-159.046-87.513-135.937,19.89-145.453,50.386-14.953,42.43-16.312,75.579-4.079,50.386-27.188,72.927-12.234,47.734,6.8,47.734S-2247.774,1898.455-2247.774,1898.455Z" transform="translate(-29 -21)" fill="#ffe8d2"/>
    <path id="Path_11140" data-name="Path 11140" d="M-2261.184,1867.472H-2023.9s-2.3,16.126,9.215-31.1,29.948-39.163-14.974-96.755-97.907-82.933-134.766-76.022-115.185,17.278-123.248,43.77-12.67,36.859-13.822,65.655-3.456,43.77-23.038,63.352-10.366,41.467,5.76,41.467S-2261.184,1867.472-2261.184,1867.472Z" transform="translate(10.282 7.446)" fill="#ffdfbf"/>
    <path id="Path_11142" data-name="Path 11142" d="M-2272.4,1836.57h201.512s-1.957,13.695,7.825-26.411,25.433-33.259-12.717-82.17-83.147-70.431-114.45-64.562-97.821,14.673-104.669,37.172-10.76,31.3-11.739,55.758-2.935,37.172-19.564,53.8-8.8,35.215,4.891,35.215S-2272.4,1836.57-2272.4,1836.57Z" transform="translate(35.503 39.91)" fill="#ffc791"/>
    <path id="Path_11143" data-name="Path 11143" d="M-2285.969,1799.208h158.264s-1.537,10.756,6.146-20.743,19.974-26.121-9.988-64.535-65.3-55.315-89.887-50.706-76.827,11.524-82.2,29.194-8.451,24.585-9.219,43.792-2.3,29.194-15.366,42.255-6.914,27.658,3.842,27.658S-2285.969,1799.208-2285.969,1799.208Z" transform="translate(65.998 76.453)" fill="#fcb773"/>
  </g>
</svg>
