<svg xmlns="http://www.w3.org/2000/svg" width="14.856" height="18" viewBox="0 0 14.856 18">
  <g id="Group_27417" data-name="Group 27417" transform="translate(-87.072 -310)">
    <g id="copy_2_" data-name="copy (2)" transform="translate(68.725 310)">
      <path id="Path_186019" data-name="Path 186019" d="M31.211,0H23.649a1.994,1.994,0,0,0-1.992,1.992v.245H20.339a1.994,1.994,0,0,0-1.992,1.992V16.008A1.994,1.994,0,0,0,20.339,18H27.9a1.994,1.994,0,0,0,1.992-1.992v-.245h1.318A1.994,1.994,0,0,0,33.2,13.771V1.992A1.994,1.994,0,0,0,31.211,0Zm-2.6,16.008a.708.708,0,0,1-.707.707H20.339a.708.708,0,0,1-.707-.707V4.229a.708.708,0,0,1,.707-.707H27.9a.708.708,0,0,1,.707.707V16.008Zm3.31-2.237a.708.708,0,0,1-.707.707H29.894V4.229A1.994,1.994,0,0,0,27.9,2.237h-4.96V1.992a.708.708,0,0,1,.707-.707h7.562a.708.708,0,0,1,.707.707V13.771Z" fill="#7b8491"/>
    </g>
  </g>
</svg>
