<svg width="20" height="18" viewBox="0 0 20 18" fill="none" xmlns="http://www.w3.org/2000/svg">
<path d="M12.16 5.94H10.52V4.25C10.52 3.91 10.26 3.64 9.93 3.64C9.61 3.64 9.34 3.91 9.34 4.25V5.94H7.71C7.39 5.94 7.12 6.21 7.12 6.55C7.12 6.89 7.38 7.16 7.71 7.16H9.34V8.85C9.34 9.19 9.6 9.46 9.93 9.46C10.25 9.46 10.52 9.19 10.52 8.85V7.16H12.15C12.47 7.16 12.74 6.89 12.74 6.55C12.74 6.21 12.48 5.94 12.16 5.94Z" fill="#01979E"/>
<path d="M14.95 17.29C14.78 17.29 14.61 17.22 14.48 17.09L10.72 13.32H9.14L5.39 17.1C5.13 17.36 4.71 17.36 4.45 17.1C4.19 16.84 4.19 16.42 4.45 16.16L7.27 13.33H1.08C0.49 13.32 0 12.84 0 12.24V1.08C0 0.49 0.49 0 1.08 0H18.79C19.38 0 19.87 0.49 19.87 1.08V12.24C19.87 12.83 19.38 13.32 18.79 13.32H12.6L15.42 16.15C15.68 16.41 15.68 16.83 15.42 17.09C15.3 17.23 15.13 17.29 14.95 17.29ZM1.31 12.19H18.68V1.11H1.31V12.19Z" fill="#01979E"/>
</svg>
