<svg width="26" height="16" viewBox="0 0 26 16" fill="none" xmlns="http://www.w3.org/2000/svg">
<path d="M1.8607 16H15.8408C16.8756 16 17.7015 15.1443 17.7015 14.0995V1.9005C17.7015 0.855721 16.8756 0 15.8408 0H1.8607C0.825871 0 0 0.855721 0 1.9005V14.0995C0.00995025 15.1443 0.835822 16 1.8607 16ZM1.14428 1.57214C1.14428 1.31343 1.33333 1.12438 1.54229 1.12438H16.1692C16.3781 1.12438 16.5672 1.31343 16.5672 1.57214V14.4279C16.5672 14.6866 16.3781 14.8756 16.1692 14.8756H1.54229C1.33333 14.8756 1.14428 14.6866 1.14428 14.4279V1.57214Z" fill="#01979E"/>
<path d="M25.8507 1.70149C25.8507 1.69154 25.8408 1.68159 25.8408 1.67164C25.8408 1.63184 25.8308 1.59204 25.8209 1.55224C25.8109 1.52239 25.801 1.49254 25.791 1.46269C25.7811 1.45274 25.7811 1.43284 25.7811 1.42289C25.7711 1.39303 25.7413 1.38309 25.7214 1.36318C25.7015 1.34328 25.6816 1.31343 25.6617 1.29353C25.6318 1.26368 25.592 1.24378 25.5522 1.21393C25.5323 1.20398 25.5124 1.19403 25.4826 1.18408C25.4328 1.16418 25.3831 1.15423 25.3333 1.15423C25.3134 1.15423 25.3035 1.14428 25.2935 1.14428C25.2836 1.14428 25.2836 1.14428 25.2736 1.14428C25.2239 1.14428 25.1741 1.15423 25.1244 1.17413C25.0945 1.18408 25.0746 1.18408 25.0547 1.20398C25.0448 1.21393 25.0249 1.21393 25.0149 1.21393L18.6667 4.87562C18.398 5.03483 18.3085 5.37314 18.4577 5.64179C18.607 5.91045 18.9552 6 19.2239 5.85075L24.7164 2.67662V13.3632L19.0647 10.3582C18.7861 10.209 18.4478 10.3184 18.2985 10.5871C18.1493 10.8657 18.2587 11.204 18.5274 11.3532L25.005 14.796H25.0149C25.0746 14.8259 25.1343 14.8458 25.204 14.8557C25.2139 14.8557 25.2139 14.8557 25.2239 14.8557C25.2438 14.8557 25.2537 14.8657 25.2736 14.8657C25.3234 14.8657 25.3731 14.8458 25.4229 14.8358H25.4328C25.5025 14.8159 25.5622 14.7861 25.6219 14.7363C25.6219 14.7363 25.6219 14.7363 25.6318 14.7363C25.6915 14.6866 25.7313 14.6368 25.7711 14.5672C25.7711 14.5672 25.7711 14.5672 25.7711 14.5572C25.801 14.5075 25.8109 14.4478 25.8209 14.3781C25.8209 14.3582 25.8308 14.3483 25.8308 14.3284C25.8308 14.3184 25.8408 14.3085 25.8408 14.2985V1.70149H25.8507Z" fill="#01979E"/>
<path d="M11.0846 7.39303H9.44278V5.69154C9.44278 5.35323 9.17413 5.08458 8.85572 5.08458C8.52736 5.08458 8.26865 5.36318 8.26865 5.69154V7.39303H6.62686C6.29851 7.39303 6.0398 7.66169 6.0398 8C6.0398 8.33831 6.30846 8.60697 6.62686 8.60697H8.26865V10.3085C8.26865 10.6468 8.53731 10.9154 8.85572 10.9154C9.18408 10.9154 9.44278 10.6368 9.44278 10.3085V8.61691H11.0846C11.4129 8.61691 11.6716 8.33831 11.6716 8.00995C11.6716 7.66169 11.4129 7.39303 11.0846 7.39303Z" fill="#01979E"/>
</svg>
