<svg id="_01_align_center" data-name="01 align center" xmlns="http://www.w3.org/2000/svg" width="12" height="12" viewBox="0 0 12 12">
  <path id="Path_186058" data-name="Path 186058" d="M5,9.529H7.207l6.822-6.822a1.562,1.562,0,0,0,0-2.207,1.6,1.6,0,0,0-2.207,0L5,7.322ZM6,7.736l6.529-6.528a.574.574,0,0,1,.793,0,.561.561,0,0,1,0,.793L6.793,8.529H6Z" transform="translate(-2.5 -0.029)" fill="#fff"/>
  <path id="Path_186059" data-name="Path 186059" d="M11.81,3.811l-.81.81V8H8v3H1V1.5A.5.5,0,0,1,1.5,1H7.379l.81-.81A2.506,2.506,0,0,1,8.42,0H1.5A1.5,1.5,0,0,0,0,1.5V12H9.207L12,9.207V3.58A2.575,2.575,0,0,1,11.81,3.811ZM9,10.793V9h1.793Z" transform="translate(0)" fill="#fff"/>
</svg>
