<svg id="Layer_1" data-name="Layer 1" xmlns="http://www.w3.org/2000/svg" xmlns:xlink="http://www.w3.org/1999/xlink" viewBox="0 0 390 265.02"><defs><linearGradient id="linear-gradient" x1="-761.54" y1="671.66" x2="-761.54" y2="671.04" gradientTransform="matrix(390, 0, 0, -179.13, 297196.75, 120348.93)" gradientUnits="userSpaceOnUse"><stop offset="0" stop-color="#e9f3fc"/><stop offset="1" stop-color="#fff"/></linearGradient><linearGradient id="linear-gradient-2" x1="-756.92" y1="657.41" x2="-756.92" y2="658.41" gradientTransform="matrix(116.18, 0, 0, -25.87, 88203.15, 17164.85)" gradientUnits="userSpaceOnUse"><stop offset="0" stop-color="#f2c43c"/><stop offset="0.76" stop-color="#ffac00"/></linearGradient><linearGradient id="linear-gradient-3" x1="-756.92" y1="641.72" x2="-756.92" y2="642.72" gradientTransform="matrix(116.18, 0, 0, -12.94, 88203.15, 8483.64)" xlink:href="#linear-gradient-2"/><linearGradient id="linear-gradient-4" x1="-749.42" y1="668.99" x2="-749.43" y2="669.65" gradientTransform="matrix(54.29, 0, 0, -106.09, 40843.53, 71247.17)" gradientUnits="userSpaceOnUse"><stop offset="0" stop-color="#14336d"/><stop offset="0.97" stop-color="#0e2253"/></linearGradient><linearGradient id="linear-gradient-5" x1="-743.43" y1="662.12" x2="-743.64" y2="661.66" gradientTransform="matrix(34.29, 0, 0, -61.73, 25558.1, 41269.94)" gradientUnits="userSpaceOnUse"><stop offset="0" stop-color="#ee851d"/><stop offset="0.96" stop-color="#d87819"/><stop offset="1" stop-color="#c56608"/></linearGradient><linearGradient id="linear-gradient-6" x1="-755.3" y1="664.8" x2="-756.22" y2="664.24" gradientTransform="matrix(53.06, 0, 0, -86.01, 39902.13, 57638.7)" xlink:href="#linear-gradient-5"/><linearGradient id="linear-gradient-7" x1="-745.78" y1="668.63" x2="-746.69" y2="668.17" gradientTransform="matrix(42.77, 0, 0, -85.42, 32045.9, 57248.93)" xlink:href="#linear-gradient-5"/></defs><g id="Group_6916" data-name="Group 6916"><ellipse id="Ellipse_390" data-name="Ellipse 390" cx="202.62" cy="261.64" rx="119.54" ry="3.38" fill="#0b2252" opacity="0.2" style="isolation:isolate"/><path id="Path_15869" data-name="Path 15869" d="M281.89,13a7.54,7.54,0,0,1,5.6-2.57h7.87c1.18-6,6-10.47,11.72-10.47s10.55,4.48,11.72,10.47h2.12a7.54,7.54,0,0,1,5.6,2.57,9.3,9.3,0,0,1,2.32,6.22,9.19,9.19,0,0,1-2.79,6.7A7.45,7.45,0,0,1,320.92,28H287.49a7.47,7.47,0,0,1-5.6-2.57,9.48,9.48,0,0,1,0-12.43Z" transform="translate(0 0)" fill="#e9f3fc"/><path id="Path_15870" data-name="Path 15870" d="M185.62,26.28a7.06,7.06,0,0,0-5.26-2.42H173c-1.1-5.63-5.62-9.84-11-9.84s-9.91,4.21-11,9.84h-2a7,7,0,0,0-5.26,2.42,8.87,8.87,0,0,0,.45,12.13,7,7,0,0,0,4.81,2h31.42A7.09,7.09,0,0,0,185.62,38a8.9,8.9,0,0,0,0-11.67Z" transform="translate(0 0)" fill="#e9f3fc"/><path id="Path_15871" data-name="Path 15871" d="M390,138.16V184.9a799.81,799.81,0,0,0-150-14.08C107.07,170.82,2.82,203.6,2.82,203.6c-7.74-18.36.83-71.2,21-83.58s37.7,12.37,53.63,3.54,1-87,25.49-92S142.82,76.8,172.72,76.8s25.37-50.26,60.33-52.27S267.09,76,288.12,76s12.5-21.44,45.47-22.07S375.66,129.6,389.78,138l.22.13Z" transform="translate(0 0)" fill="url(#linear-gradient)"/><g id="Group_6901" data-name="Group 6901"><path id="Path_15872" data-name="Path 15872" d="M82.71,188.47c-3.83-.13-8-1.62-7.9-8.45s4.56-7.89,5-13,.47-9.86,2.88-9.91.88,2.13,2,4.5,3.29,5.4,2.87,9.82,2.42,6.13,2.27,9.75-2.18,7.46-7.14,7.29Z" transform="translate(0 0)" fill="#daeeff"/><path id="Path_15873" data-name="Path 15873" d="M84.13,171a.16.16,0,0,0-.22,0h0a.21.21,0,0,0,0,.27s1,1.11.9,4.89c-.09,3.26-1.62,8.31-2.1,9.84-.46-1.19-1-2.5-1.53-3.61-.34-.74-.62-1.39-.78-1.8-.57-1.48.3-4.6.31-4.63a.19.19,0,0,0-.11-.23.17.17,0,0,0-.21.1v0c0,.13-.92,3.28-.3,4.89.16.42.45,1.07.79,1.82.9,2,2.25,5.05,2.23,6.23,0,1.65-.21,4-.21,4a.18.18,0,0,0,.15.2h0a.18.18,0,0,0,.17-.17s.18-2.39.21-4a7.82,7.82,0,0,0-.55-2.29c.22-.67,2.14-6.63,2.24-10.34.11-4-1-5.13-1-5.18Z" transform="translate(0 0)" fill="#6ac1ff"/></g><g id="Group_6902" data-name="Group 6902"><path id="Path_15874" data-name="Path 15874" d="M344.59,171.1c-3.27-.11-6.81-1.39-6.74-7.2s3.89-6.73,4.28-11.09.41-8.41,2.46-8.45.75,1.82,1.71,3.84,2.8,4.6,2.44,8.38,2.07,5.22,1.94,8.3-1.86,6.36-6.09,6.22Z" transform="translate(0 0)" fill="#daeeff"/><path id="Path_15875" data-name="Path 15875" d="M345.8,156.23a.14.14,0,0,0-.19,0v0a.17.17,0,0,0,0,.22s.85.95.77,4.17a38.13,38.13,0,0,1-1.79,8.39c-.39-1-.89-2.13-1.31-3.07-.28-.64-.52-1.19-.66-1.54-.48-1.26.26-3.92.26-3.95a.15.15,0,1,0-.27-.11h0c0,.11-.78,2.8-.25,4.17.14.36.38.91.67,1.55.77,1.72,1.92,4.31,1.91,5.32,0,1.4-.18,3.4-.18,3.43a.15.15,0,0,0,.13.17h0a.15.15,0,0,0,.14-.15s.15-2,.18-3.45a6.32,6.32,0,0,0-.47-2c.19-.57,1.83-5.65,1.91-8.82.09-3.38-.82-4.36-.85-4.4Z" transform="translate(0 0)" fill="#6ac1ff"/></g><g id="Group_6903" data-name="Group 6903"><path id="Path_15876" data-name="Path 15876" d="M115.21,155.19c-2.25-.07-4.68-.95-4.63-4.95s2.67-4.63,2.94-7.63.28-5.78,1.69-5.81.52,1.25,1.18,2.64,1.93,3.17,1.68,5.76,1.42,3.59,1.33,5.72-1.28,4.37-4.19,4.27Z" transform="translate(0 0)" fill="#daeeff"/><path id="Path_15877" data-name="Path 15877" d="M116,145a.09.09,0,0,0-.13,0h0a.15.15,0,0,0,0,.16s.59.65.53,2.86a25.8,25.8,0,0,1-1.23,5.77c-.27-.7-.61-1.46-.9-2.11-.2-.44-.36-.81-.45-1.05a6.1,6.1,0,0,1,.17-2.72.11.11,0,0,0-.06-.14.1.1,0,0,0-.12.07h0a6.07,6.07,0,0,0-.18,2.87c.1.25.27.63.46,1.07a14.34,14.34,0,0,1,1.31,3.65c0,1-.12,2.35-.12,2.36a.1.1,0,0,0,.09.12h0a.11.11,0,0,0,.1-.1s.1-1.4.12-2.37a4.38,4.38,0,0,0-.32-1.34,27,27,0,0,0,1.31-6.07C116.69,145.67,116.07,145,116,145Z" transform="translate(0 0)" fill="#6ac1ff"/></g><g id="Group_6904" data-name="Group 6904"><path id="Path_15878" data-name="Path 15878" d="M336.94,245c-3.93-.13-8.19-1.66-8.1-8.66s4.67-8.09,5.14-13.33.49-10.11,2.95-10.16.91,2.19,2.06,4.62,3.37,5.53,2.94,10.07,2.48,6.28,2.33,10-2.24,7.64-7.32,7.47Z" transform="translate(0 0)" fill="#daeeff"/><path id="Path_15879" data-name="Path 15879" d="M338.39,227.12a.15.15,0,0,0-.22,0l0,0a.21.21,0,0,0,0,.27s1,1.14.92,5c-.09,3.35-1.66,8.53-2.15,10.09-.47-1.22-1.07-2.56-1.57-3.7-.34-.76-.64-1.42-.8-1.84-.59-1.52.3-4.72.31-4.76a.19.19,0,0,0-.11-.23.16.16,0,0,0-.21.11h0c0,.14-.93,3.37-.3,5,.17.42.46,1.09.8,1.86.92,2.06,2.32,5.18,2.29,6.39,0,1.68-.21,4.1-.21,4.12a.2.2,0,0,0,.16.21h0a.18.18,0,0,0,.17-.18s.19-2.45.22-4.14a7.93,7.93,0,0,0-.57-2.35c.23-.69,2.2-6.79,2.3-10.6.12-4.08-1-5.25-1-5.3Z" transform="translate(0 0)" fill="#6ac1ff"/></g><g id="Group_6906" data-name="Group 6906"><g id="Group_6905" data-name="Group 6905"><path id="Path_15880" data-name="Path 15880" d="M136.46,211.82c2.76,1,.69,5.33.69,8.37s1.37,11.41-1.37,12.94-6.86,4.56-6.86,7.6-.68,6.85-3.43,8.37-5.48,1.52-5.48,3.8,1.37,3,.68,5.33-2,3-1.37,3.8H101.5s-3.43-6.09-2.75-9.89,4.12-3.8,4.8-6.85,4.12-3.8,4.12-6.85,1.37-7.6,3.43-9.12,6.17,0,7.54-3,0-6.08,2-7.61,6.18.77,8.23-1.52,5.49-6.08,7.54-5.32Z" transform="translate(0 0)" fill="#3fb790"/><path id="Path_15881" data-name="Path 15881" d="M133.71,227.31a.34.34,0,0,0-.4-.26h0a20.91,20.91,0,0,1-5.38,1c1.55-6.49,4.86-7.83,4.9-7.85a.39.39,0,0,0,.22-.48.35.35,0,0,0-.41-.25h0c-.17.07-4.32,1.69-5.71,10.18a11.76,11.76,0,0,1-3,5.63c-1.32-1.45-1.73-6.1-1.78-7.85a.35.35,0,0,0-.34-.37h0a.36.36,0,0,0-.33.39c0,.27.18,6.37,2,8.37a64.54,64.54,0,0,1-6,5.45,58.56,58.56,0,0,0-6.15,5.63,20.37,20.37,0,0,1-.12-5.73.36.36,0,0,0-.31-.41.36.36,0,0,0-.37.34c-.13,1.61-.34,5.16.32,6.37a11.31,11.31,0,0,0-2.36,4.21.38.38,0,0,0,.23.47l.1,0a.35.35,0,0,0,.32-.28c.84-3.1,3.94-6,7.43-8.9,1.91,2,7.08,2.31,7.31,2.33h0a.38.38,0,0,0,0-.76s-5-.32-6.8-2l.77-.64c4.44-3.71,9-7.55,9.78-12.09,0-.35.12-.67.19-1h.3a21.4,21.4,0,0,0,5.44-1,.4.4,0,0,0,.23-.47Z" transform="translate(0 0)" fill="#34916f"/></g><path id="Path_15882" data-name="Path 15882" d="M95.38,213.35c-3.57,2,0,10.65-.68,13.69s-2.74,5.33-2.06,8.37,2.06,5.33,2.06,8.37-4.12,6.09-3.43,11.41S94,262,94,262H109.1a7.11,7.11,0,0,0,1.37-4.56c0-3.05-3.43-6.09-2.74-7.61s3.42-4.57,2.74-9.89-2.74-5.33-3.43-8.37.69-4.57,0-6.85-4.11-4.56-4.8-6.09-2.74-7.61-6.86-5.32Z" transform="translate(0 0)" fill="#90dad8"/><path id="Path_15883" data-name="Path 15883" d="M106.92,240.06a.32.32,0,0,0-.45,0l0,0a36.36,36.36,0,0,1-3.55,4.1c0-.53.05-1.06.05-1.57,0-2.37,0-4.78-.1-7.09v-.05a46.13,46.13,0,0,0-.59-5.87c-.69-3.84-4-9.06-4.17-9.28a.32.32,0,0,0-.44-.11l0,0a.42.42,0,0,0-.08.54s3.39,5.3,4.06,9a43,43,0,0,1,.51,4.53,15.07,15.07,0,0,0-3.45-2.66.33.33,0,0,0-.45.13s0,0,0,0a.4.4,0,0,0,.15.51s3.05,1.71,3.83,3.32c.1,2.27.1,4.65.1,7a50.19,50.19,0,0,1-.52,6.11,27.61,27.61,0,0,0-.34,4.45,32.5,32.5,0,0,0-3.47-1.79.34.34,0,0,0-.44.18v0a.39.39,0,0,0,.19.49,21.22,21.22,0,0,1,4,2.17,25.81,25.81,0,0,1,2.1,7.77.36.36,0,0,0,.35.36h0a.37.37,0,0,0,.33-.4,27.1,27.1,0,0,0-2.21-8.14c-.33-.74-.07-2.82.2-5,.14-1.15.29-2.4.4-3.65,1.38-.93,4-4.45,4.16-4.6a.41.41,0,0,0,0-.54Z" transform="translate(0 0)" fill="#fff"/></g><g id="Group_6915" data-name="Group 6915"><g id="Group_6912" data-name="Group 6912"><g id="Group_6909" data-name="Group 6909"><g id="Group_6907" data-name="Group 6907"><path id="Line_134" data-name="Line 134" d="M212.94,262.31v-118" transform="translate(0 0)" fill="#fff"/><path id="Rectangle_2736" data-name="Rectangle 2736" d="M209.3,144.29h7.27v118H209.3Z" transform="translate(0 0)" fill="#e0e9f3"/></g><g id="Group_6908" data-name="Group 6908"><path id="Line_135" data-name="Line 135" d="M311.45,262.31v-118" transform="translate(0 0)" fill="#fff"/><path id="Rectangle_2737" data-name="Rectangle 2737" d="M307.82,144.29h7.27v118h-7.27Z" transform="translate(0 0)" fill="#e0e9f3"/></g></g><g id="Group_6910" data-name="Group 6910"><path id="Rectangle_2738" data-name="Rectangle 2738" d="M204.1,133.12H320.29V159H204.1Z" transform="translate(0 0)" fill="url(#linear-gradient-2)"/><path id="Path_15884" data-name="Path 15884" d="M216.28,133.12,206.65,159H204.1v-9.56l6.07-16.32Z" transform="translate(0 0)" fill="#14336a"/><path id="Path_15885" data-name="Path 15885" d="M229,133.12,219.35,159h-6.1l9.62-25.88Z" transform="translate(0 0)" fill="#14336a"/><path id="Path_15886" data-name="Path 15886" d="M241.67,133.12,232,159h-6.1l9.63-25.88Z" transform="translate(0 0)" fill="#14336a"/><path id="Path_15887" data-name="Path 15887" d="M254.36,133.12,244.74,159h-6.11l9.63-25.88Z" transform="translate(0 0)" fill="#14336a"/><path id="Path_15888" data-name="Path 15888" d="M267.06,133.12,257.44,159h-6.11L261,133.12Z" transform="translate(0 0)" fill="#14336a"/><path id="Path_15889" data-name="Path 15889" d="M279.76,133.12,270.13,159H264l9.63-25.88Z" transform="translate(0 0)" fill="#14336a"/><path id="Path_15890" data-name="Path 15890" d="M292.45,133.12,282.83,159h-6.1l9.62-25.88Z" transform="translate(0 0)" fill="#14336a"/><path id="Path_15891" data-name="Path 15891" d="M305.15,133.12,295.52,159h-6.1l9.63-25.88Z" transform="translate(0 0)" fill="#14336a"/><path id="Path_15892" data-name="Path 15892" d="M317.85,133.12,308.22,159h-6.1l9.63-25.88Z" transform="translate(0 0)" fill="#14336a"/><path id="Path_15893" data-name="Path 15893" d="M320.29,144.29V159h-5.48Z" transform="translate(0 0)" fill="#14336a"/></g><g id="Group_6911" data-name="Group 6911"><path id="Rectangle_2739" data-name="Rectangle 2739" d="M204.1,169.43H320.29v12.94H204.1Z" transform="translate(0 0)" fill="url(#linear-gradient-3)"/><path id="Path_15894" data-name="Path 15894" d="M211.46,169.43l-4.81,12.94H204.1v-9.56l1.26-3.38Z" transform="translate(0 0)" fill="#14336a"/><path id="Path_15895" data-name="Path 15895" d="M224.16,169.43l-4.81,12.94h-6.1l4.81-12.94Z" transform="translate(0 0)" fill="#14336a"/><path id="Path_15896" data-name="Path 15896" d="M236.85,169.43,232,182.37h-6.1l4.82-12.94Z" transform="translate(0 0)" fill="#14336a"/><path id="Path_15897" data-name="Path 15897" d="M249.55,169.43l-4.81,12.94h-6.11l4.82-12.94Z" transform="translate(0 0)" fill="#14336a"/><path id="Path_15898" data-name="Path 15898" d="M262.25,169.43l-4.81,12.94h-6.11l4.82-12.94Z" transform="translate(0 0)" fill="#14336a"/><path id="Path_15899" data-name="Path 15899" d="M275,169.43l-4.82,12.94H264l4.82-12.94Z" transform="translate(0 0)" fill="#14336a"/><path id="Path_15900" data-name="Path 15900" d="M287.64,169.43l-4.81,12.94h-6.1l4.81-12.94Z" transform="translate(0 0)" fill="#14336a"/><path id="Path_15901" data-name="Path 15901" d="M300.34,169.43l-4.82,12.94h-6.1l4.82-12.94Z" transform="translate(0 0)" fill="#14336a"/><path id="Path_15902" data-name="Path 15902" d="M313,169.43l-4.81,12.94h-6.1l4.81-12.94Z" transform="translate(0 0)" fill="#14336a"/><path id="Path_15903" data-name="Path 15903" d="M320.29,169.43v12.94h-5.48l4.82-12.94Z" transform="translate(0 0)" fill="#14336a"/></g></g><g id="Group_6914" data-name="Group 6914"><path id="Path_15904" data-name="Path 15904" d="M132.18,250l-1.17,6.6h20l1.28-6.6Z" transform="translate(0 0)" fill="#ffaa9d"/><path id="Path_15905" data-name="Path 15905" d="M131,256.64l-.95,5.15a.5.5,0,0,0,.38.61l.08,0H152.9a.42.42,0,0,0,.38-.45.57.57,0,0,0,0-.14L151,256.64Z" transform="translate(0 0)" fill="#0b2252"/><path id="Path_15906" data-name="Path 15906" d="M162.5,250l-1.17,6.6h20l1.27-6.6Z" transform="translate(0 0)" fill="#ffaa9d"/><path id="Path_15907" data-name="Path 15907" d="M161.33,256.64l-1,5.15a.51.51,0,0,0,.38.61l.09,0h22.38a.41.41,0,0,0,.37-.45.33.33,0,0,0,0-.14l-2.26-5.19Z" transform="translate(0 0)" fill="#0b2252"/><path id="Path_15908" data-name="Path 15908" d="M130.22,147s5.9,48,4,69.58-3.93,36-3.93,36h22.75s6-27.07,6.41-43.13c0,0,3.72,21.11,1.45,43.13h22.12s6.09-76.95-6.73-106.09Z" transform="translate(0 0)" fill="url(#linear-gradient-4)"/><path id="Path_15909" data-name="Path 15909" d="M159.26,72.65S137.82,76.43,129.89,97s-4.56,27.77-1.65,31,8.81,6.32,8.81,6.32Z" transform="translate(0 0)" fill="url(#linear-gradient-5)"/><path id="Path_15910" data-name="Path 15910" d="M180.72,156.2c-2.31,3.43-51.36,1.25-52.48-7.51s8.56-63.76,18.85-71.46c9.63-7.21,16.34-5.82,22.55-4.18s13.08,15.23,10.54,27-4.86,12.59-4.57,24.36C176,138.71,183.1,152.68,180.72,156.2Z" transform="translate(0 0)" fill="url(#linear-gradient-6)"/><g id="Group_6913" data-name="Group 6913"><path id="Path_15911" data-name="Path 15911" d="M178.21,57.74l1,7.87-1.07.11s-.12,6.63-4.38,6.17c-1.22-.13-2.87-1-3.28-.75s-.52,2.15-.58,2.68c-.23,2-6.68.9-5.9-1.26s1.88-4.87,1.5-5.56c-1.34-2.39-2.35-8.65,3.13-11.55,4.38-2.31,9.24-.39,9.59,2.29Z" transform="translate(0 0)" fill="#ffaa9d"/><path id="Path_15912" data-name="Path 15912" d="M164,72.56c.74-2,1.87-4.87,1.49-5.56,0,0,2.86,3.77,5.15,4.08h0a.37.37,0,0,0-.18,0c-.49.34-.52,2.15-.58,2.69-.23,2-6.68.9-5.89-1.26Z" transform="translate(0 0)" fill="#ff9f91"/><path id="Path_15913" data-name="Path 15913" d="M169,62.93c-2.73-.14-.33,6.24-3.3,6.43s-5.82-6.67-4.28-12.48,5.69-6.07,9.69-5.86,9,1.52,9.4,4.8c.88,7.91-8.3,2.44-8.6,4.9-.22,1.9-.29,7.31,1.44,7.2S176.7,66,178.1,66.2c.81.13,4.12,10.2-1.46,11.33s-7.54-4.14-6.87-8.76c.65-4.38.6-5.77-.73-5.84Z" transform="translate(0 0)" fill="#14336a"/></g><path id="Path_15914" data-name="Path 15914" d="M173,163s9.72,2.38,13.44,2.21,5.34-.32,5.27-1.29-7.4-4-7.53-4.94,1.23-1.54,1.09-2.62-6.77-.85-7.3-2-5.3,7-5,8.62Z" transform="translate(0 0)" fill="#ffaa9d"/><path id="Path_15915" data-name="Path 15915" d="M180.19,153,174,164.16s-25.45-4.93-33.16-29.88-1.77-50.78,12.59-55.2c11.36-3.5,9,21.08,7.73,30.1S158.65,135.06,180.19,153Z" transform="translate(0 0)" fill="url(#linear-gradient-7)"/></g></g></g></svg>