<svg xmlns="http://www.w3.org/2000/svg" width="21.273" height="18" viewBox="0 0 21.273 18">
  <g id="filter_4_" data-name="filter (4)" transform="translate(-3 -5)">
    <path id="Path_1" data-name="Path 1" d="M3.818,8.273H7.091A1.638,1.638,0,0,0,8.727,9.909h1.636A1.638,1.638,0,0,0,12,8.273H23.455a.818.818,0,1,0,0-1.636H12A1.638,1.638,0,0,0,10.364,5H8.727A1.638,1.638,0,0,0,7.091,6.636H3.818a.818.818,0,1,0,0,1.636Z" fill="#00969e"/>
    <path id="Path_2" data-name="Path 2" d="M23.455,14.636H18.545A1.638,1.638,0,0,0,16.909,13H15.273a1.638,1.638,0,0,0-1.636,1.636H3.818a.818.818,0,0,0,0,1.636h9.818a1.638,1.638,0,0,0,1.636,1.636h1.636a1.638,1.638,0,0,0,1.636-1.636h4.909a.818.818,0,0,0,0-1.636Z" transform="translate(0 -1.455)" fill="#00969e"/>
    <path id="Path_3" data-name="Path 3" d="M23.455,22.636H12A1.638,1.638,0,0,0,10.364,21H8.727a1.638,1.638,0,0,0-1.636,1.636H3.818a.818.818,0,0,0,0,1.636H7.091a1.638,1.638,0,0,0,1.636,1.636h1.636A1.638,1.638,0,0,0,12,24.273H23.455a.818.818,0,0,0,0-1.636Z" transform="translate(0 -2.909)" fill="#00969e"/>
  </g>
</svg>
