<svg xmlns="http://www.w3.org/2000/svg" width="73.045" height="20" viewBox="0 0 73.045 20">
  <g id="Group_49" data-name="Group 49" transform="translate(-24.49 -94.943)">
    <g id="Group_34448" data-name="Group 34448" transform="translate(24.49 94.943)">
      <path id="Path_1524" data-name="Path 1524" d="M160.539,96.254c-2.618-.951-4.688,2.825-6.832,5.894-3.862-3.106-6.777-10.422-10.727-10.354-5.446.094-1.49,16.089,5.083,18.477,2.729.991,4.844-2.913,6.822-6.624,2.7,1.064,5.235,0,6.073-1.713C162.092,99.613,162.377,96.921,160.539,96.254Zm-11.666,10.4a14.69,14.69,0,0,1-5.812-5.47c-.949-1.581-2.167-6.08-1.249-6.35,0,0,1.137-2.287,3.613.189,2.116,2.115,4.438,6.323,8.038,7.97C152.239,105.167,150.537,107.456,148.873,106.656Zm12.255-5.754c-1.255,2.77-3.38,3.417-5.931,2.2,1.7-3.184,3.087-6.516,5.01-6.1C161.959,97.379,161.607,99.843,161.128,100.9Z" transform="translate(-140.305 -91.349)" fill="#5bc4bf"/>
      <path id="Path_1525" data-name="Path 1525" d="M159.465,91.169c-2.847-.71-4.6,3.581-6.512,7.123-4.388-2.873-6.919-10.944-10.96-10.531-5.713.584-1.213,18.12,5.936,19.9,2.968.74,4.759-3.647,6.425-7.857,4.134,1.316,6.517-1.282,7.207-3.218C162.5,93.969,161.464,91.668,159.465,91.169Zm-11.5,11.43c-1.673-.417-4.033-2.61-5.512-5.2a10.248,10.248,0,0,1-1.549-6.165,1.925,1.925,0,0,1,1.635-1.7,4.163,4.163,0,0,1,2.406,1.39c1.982,2.029,4.1,6.275,7.61,8.091C151.259,101.3,149.854,103.07,147.966,102.6Zm12.625-6.517c-1.011,3.117-3.167,4.061-5.973,3.06,1.433-3.613,2.739-6.705,4.751-6.2C160.646,93.257,160.978,94.89,160.591,96.082Z" transform="translate(-139.398 -87.747)" fill="#fbb600"/>
      <path id="Path_1526" data-name="Path 1526" d="M172.624,92.467c-.053-.025-.89-.384-2.042.723a6.289,6.289,0,0,0-1.243,1.714v0a2.172,2.172,0,0,1,2.251-1.079c1.277.318,1.609,1.951,1.222,3.143-1.011,3.117-3.167,4.061-5.973,3.06a9.888,9.888,0,0,1-1.665-.85c-3.98-2.606-6.432-9.487-9.868-10.437-1.634.275-2.1,2.559-2.18,3.378h0a2.37,2.37,0,0,1,.136-.441c.581-1.354,2.1-1.5,3.694.126,1.982,2.029,4.309,6.275,7.821,8.091a12.145,12.145,0,0,0,1.8.8c4.134,1.316,6.517-1.282,7.207-3.218C174.557,95.307,173.981,93.356,172.624,92.467Z" transform="translate(-151.62 -88.635)" fill="#00969d"/>
      <path id="Path_1527" data-name="Path 1527" d="M229.9,118.724a3.03,3.03,0,0,0-.938-.408c-4.95-1.234-6.6,12.651-11.5,11.43a8.22,8.22,0,0,0,3.336.616,2.777,2.777,0,0,0,2.182-1.26c1.248-2.953,2.293-6.093,3.633-7.94C227.089,120.51,228.433,118.526,229.9,118.724Z" transform="translate(-208.897 -114.891)" fill="#f68b1f"/>
    </g>
    <g id="Group_34450" data-name="Group 34450" transform="translate(50.813 104.943)">
      <g id="Group_34449" data-name="Group 34449">
        <path id="Path_1528" data-name="Path 1528" d="M40.676,307.768l-2.025-4.844a.855.855,0,0,1-.08-.33.674.674,0,0,1,.687-.678.714.714,0,0,1,.7.482l1.561,4.041,1.579-4.086a.712.712,0,0,1,.66-.437.663.663,0,0,1,.678.66.8.8,0,0,1-.071.3l-2.043,4.889a.806.806,0,0,1-.776.544h-.089A.806.806,0,0,1,40.676,307.768Z" transform="translate(-38.571 -301.862)" fill="#00969d"/>
        <path id="Path_1529" data-name="Path 1529" d="M130.75,304.675v-.018a3.174,3.174,0,0,1,3.256-3.23,3.306,3.306,0,0,1,2.088.633.687.687,0,0,1,.268.544.67.67,0,0,1-.678.669.72.72,0,0,1-.41-.134,2.055,2.055,0,0,0-1.276-.446,1.85,1.85,0,0,0-1.811,1.945v.018A1.855,1.855,0,0,0,134,306.62a2,2,0,0,0,1.356-.491.636.636,0,1,1,.821.972,3.291,3.291,0,0,1-5.424-2.427Z" transform="translate(-120.633 -301.428)" fill="#00969d"/>
        <path id="Path_1530" data-name="Path 1530" d="M183.426,304.675v-.018a3.32,3.32,0,0,1,6.637-.018v.018a3.32,3.32,0,0,1-6.637.018Zm5.2,0v-.018a1.9,1.9,0,0,0-1.891-1.963,1.868,1.868,0,0,0-1.873,1.945v.018a1.9,1.9,0,0,0,1.891,1.963A1.867,1.867,0,0,0,188.627,304.675Z" transform="translate(-167.528 -301.428)" fill="#00969d"/>
        <path id="Path_1531" data-name="Path 1531" d="M249.35,302.621a.682.682,0,0,1,.687-.687h.143a.851.851,0,0,1,.714.4l2.65,3.479v-3.221a.678.678,0,0,1,1.356,0v4.969a.682.682,0,0,1-.687.687h-.045a.851.851,0,0,1-.714-.4l-2.748-3.6v3.345a.678.678,0,0,1-1.356,0Z" transform="translate(-226.216 -301.862)" fill="#00969d"/>
        <path id="Path_1532" data-name="Path 1532" d="M307.876,302.621a.682.682,0,0,1,.687-.687h.143a.851.851,0,0,1,.714.4l2.65,3.479v-3.221a.678.678,0,0,1,1.356,0v4.969a.682.682,0,0,1-.687.687h-.045a.851.851,0,0,1-.714-.4l-2.748-3.6v3.345a.678.678,0,0,1-1.356,0Z" transform="translate(-278.319 -301.862)" fill="#00969d"/>
        <path id="Path_1533" data-name="Path 1533" d="M363.883,304.675v-.018a3.174,3.174,0,0,1,3.256-3.23,3.307,3.307,0,0,1,2.088.633.687.687,0,0,1,.268.544.67.67,0,0,1-.678.669.72.72,0,0,1-.41-.134,2.055,2.055,0,0,0-1.276-.446,1.85,1.85,0,0,0-1.811,1.945v.018a1.855,1.855,0,0,0,1.811,1.963,2,2,0,0,0,1.356-.491.636.636,0,1,1,.821.972,3.291,3.291,0,0,1-5.424-2.427Z" transform="translate(-328.179 -301.428)" fill="#00969d"/>
        <path id="Path_1534" data-name="Path 1534" d="M418.1,303.67h-1.32a.633.633,0,1,1,0-1.267H420.8a.633.633,0,0,1,0,1.267h-1.32v4.345a.687.687,0,0,1-1.374,0Z" transform="translate(-374.709 -302.296)" fill="#00969d"/>
      </g>
      <circle id="Ellipse_24" data-name="Ellipse 24" cx="1.054" cy="1.054" r="1.054" transform="translate(6.558 2.98)" fill="#e17f24"/>
    </g>
  </g>
</svg>
