<svg id="apps" xmlns="http://www.w3.org/2000/svg" width="18" height="18" viewBox="0 0 18 18">
  <path id="Path_186053" data-name="Path 186053" d="M4.125,8.25A4.125,4.125,0,1,1,8.25,4.125,4.125,4.125,0,0,1,4.125,8.25Zm0-6A1.875,1.875,0,1,0,6,4.125,1.875,1.875,0,0,0,4.125,2.25Z" fill="#2b3050"/>
  <path id="Path_186054" data-name="Path 186054" d="M281.459,8.25a4.125,4.125,0,1,1,4.125-4.125A4.125,4.125,0,0,1,281.459,8.25Zm0-6a1.875,1.875,0,1,0,1.875,1.875A1.875,1.875,0,0,0,281.459,2.25Z" transform="translate(-267.584)" fill="#2b3050"/>
  <path id="Path_186055" data-name="Path 186055" d="M4.125,285.584a4.125,4.125,0,1,1,4.125-4.125A4.125,4.125,0,0,1,4.125,285.584Zm0-6A1.875,1.875,0,1,0,6,281.459,1.875,1.875,0,0,0,4.125,279.584Z" transform="translate(0 -267.584)" fill="#2b3050"/>
  <path id="Path_186056" data-name="Path 186056" d="M281.459,285.584a4.125,4.125,0,1,1,4.125-4.125A4.125,4.125,0,0,1,281.459,285.584Zm0-6a1.875,1.875,0,1,0,1.875,1.875A1.875,1.875,0,0,0,281.459,279.584Z" transform="translate(-267.584 -267.584)" fill="#2b3050"/>
</svg>
