<svg width="26" height="16" viewBox="0 0 26 16" fill="none" xmlns="http://www.w3.org/2000/svg">
<path d="M1.87 16H15.92C16.96 16 17.79 15.1443 17.79 14.0995V1.9005C17.79 0.855721 16.96 0 15.92 0H1.87C0.830001 0 0 0.855721 0 1.9005V14.0995C0 15.1443 0.830001 16 1.87 16ZM1.14 1.57214C1.14 1.31343 1.33 1.12438 1.54 1.12438H16.24C16.45 1.12438 16.64 1.31343 16.64 1.57214V14.4279C16.64 14.6866 16.45 14.8756 16.24 14.8756H1.54C1.33 14.8756 1.14 14.6866 1.14 14.4279V1.57214Z" fill="#01979E"/>
<path d="M25.98 1.70149C25.98 1.69154 25.97 1.68159 25.97 1.67164C25.97 1.63184 25.96 1.59204 25.95 1.55224C25.94 1.52239 25.93 1.49254 25.92 1.46269C25.91 1.45274 25.91 1.43284 25.91 1.42289C25.9 1.39303 25.87 1.38309 25.85 1.36318C25.83 1.34328 25.81 1.31343 25.79 1.29353C25.76 1.26368 25.72 1.24378 25.68 1.21393C25.66 1.20398 25.64 1.19403 25.61 1.18408C25.56 1.16418 25.51 1.15423 25.46 1.15423C25.44 1.15423 25.43 1.14428 25.42 1.14428C25.41 1.14428 25.41 1.14428 25.4 1.14428C25.35 1.14428 25.3 1.15423 25.25 1.17413C25.22 1.18408 25.2 1.18408 25.18 1.20398C25.17 1.21393 25.15 1.21393 25.14 1.21393L18.76 4.87562C18.49 5.03483 18.4 5.37314 18.55 5.64179C18.7 5.91045 19.05 6 19.32 5.85075L24.84 2.67662V13.3632L19.16 10.3582C18.88 10.209 18.54 10.3184 18.39 10.5871C18.24 10.8657 18.35 11.204 18.62 11.3532L25.13 14.796H25.14C25.2 14.8259 25.26 14.8458 25.33 14.8557C25.34 14.8557 25.34 14.8557 25.35 14.8557C25.37 14.8557 25.38 14.8657 25.4 14.8657C25.45 14.8657 25.5 14.8458 25.55 14.8358H25.56C25.63 14.8159 25.69 14.7861 25.75 14.7363C25.75 14.7363 25.75 14.7363 25.76 14.7363C25.82 14.6866 25.86 14.6368 25.9 14.5672C25.9 14.5672 25.9 14.5672 25.9 14.5572C25.93 14.5075 25.94 14.4478 25.95 14.3781C25.95 14.3582 25.96 14.3483 25.96 14.3284C25.96 14.3184 25.97 14.3085 25.97 14.2985V1.70149H25.98Z" fill="#01979E"/>
<path d="M6.21 4.68657C5.38 5.35323 4.87 6.2189 4.68 7.25373V7.26368C4.68 7.31343 4.67 7.37313 4.66 7.42288V7.43284C4.65 7.48259 4.65 7.53234 4.64 7.58209L4.61 7.71144V8.2587L4.62 8.30846C4.62 8.31841 4.62 8.32836 4.62 8.33831C4.62 8.34826 4.62 8.34826 4.63 8.35821C4.69 8.98507 4.87 9.58209 5.2 10.1493C5.97 11.4726 7.41 12.2587 8.9 12.2587C9.31 12.2587 9.72 12.199 10.11 12.0796C12.25 11.4229 13.52 9.28358 13.05 7.10448C12.65 5.23383 10.97 3.82089 9.05 3.76119C7.99 3.72139 7.03 4.02985 6.21 4.68657ZM12.3 8.00995C12.3 8.91542 11.94 9.76119 11.29 10.408C10.65 11.0448 9.8 11.393 8.9 11.393H8.89C7.01 11.3831 5.49 9.86069 5.5 7.99005C5.51 6.12935 7.03 4.61692 8.9 4.61692C9.81 4.61692 10.66 4.97512 11.31 5.62189C11.95 6.24876 12.3 7.10448 12.3 8.00995Z" fill="#01979E"/>
<path d="M10.8 8.22886H9.21V6.67662C9.21 6.43781 9.01 6.24875 8.77 6.24875C8.53 6.24875 8.33 6.43781 8.33 6.67662V8.65672C8.33 8.89552 8.53 9.08458 8.77 9.08458H10.8C11.04 9.08458 11.24 8.89552 11.24 8.65672C11.24 8.41791 11.04 8.22886 10.8 8.22886Z" fill="#01979E"/>
</svg>
