<svg width="20" height="18" viewBox="0 0 20 18" fill="none" xmlns="http://www.w3.org/2000/svg">
<path d="M14.95 17.29C14.78 17.29 14.61 17.22 14.48 17.09L10.72 13.32H9.14L5.39 17.1C5.13 17.36 4.71 17.36 4.45 17.1C4.19 16.84 4.19 16.42 4.45 16.16L7.27 13.33H1.08C0.49 13.32 0 12.84 0 12.24V1.08C0 0.49 0.49 0 1.08 0H18.79C19.38 0 19.87 0.49 19.87 1.08V12.24C19.87 12.83 19.38 13.32 18.79 13.32H12.6L15.42 16.15C15.68 16.41 15.68 16.83 15.42 17.09C15.29 17.23 15.12 17.29 14.95 17.29ZM1.3 12.19H18.67V1.11H1.3V12.19Z" fill="#01979E"/>
<path d="M7.28 3.27C6.46 3.93 5.95 4.8 5.76 5.83V5.84C5.76 5.89 5.75 5.95 5.74 6V6.01C5.73 6.06 5.73 6.11 5.72 6.16L5.69 6.29V6.83L5.7 6.88C5.7 6.89 5.7 6.9 5.7 6.91C5.7 6.92 5.7 6.92 5.71 6.93C5.76 7.56 5.95 8.15 6.27 8.71C7.03 10.03 8.46 10.81 9.93 10.81C10.33 10.81 10.74 10.75 11.13 10.63C13.25 9.98 14.51 7.85 14.04 5.67C13.65 3.81 11.98 2.4 10.07 2.34C9.03 2.31 8.09 2.62 7.28 3.27ZM13.3 6.58C13.3 7.48 12.94 8.33 12.3 8.97C11.67 9.6 10.82 9.95 9.93 9.95H9.92C8.06 9.94 6.55 8.42 6.56 6.56C6.57 4.7 8.08 3.2 9.93 3.2C10.83 3.2 11.68 3.56 12.32 4.2C12.97 4.83 13.31 5.68 13.3 6.58Z" fill="#01979E"/>
<path d="M11.82 6.8H10.24V5.26C10.24 5.02 10.04 4.83 9.8 4.83C9.56 4.83 9.36 5.02 9.36 5.26V7.23C9.36 7.47 9.56 7.66 9.8 7.66H11.81C12.05 7.66 12.25 7.47 12.25 7.23C12.25 6.99 12.06 6.8 11.82 6.8Z" fill="#01979E"/>
</svg>
