<svg width="25" height="24" viewBox="0 0 25 24" fill="none" xmlns="http://www.w3.org/2000/svg">
<g id="phone 1" clip-path="url(#clip0_744_857)">
<path id="Vector" d="M13.6135 23.25C11.6838 23.25 9.78178 22.746 8.09128 21.7897L4.66303 22.8187C4.13428 22.9762 3.56278 22.8337 3.17128 22.443C2.78053 22.0522 2.63653 21.4807 2.79553 20.9513L3.82378 17.523C2.86753 15.8325 2.36353 13.9305 2.36353 12.0007C2.36353 5.79675 7.41028 0.75 13.6135 0.75C19.8168 0.75 24.8635 5.79675 24.8635 12C24.8635 18.2033 19.8168 23.25 13.6135 23.25ZM8.18878 20.2275C8.32453 20.2275 8.45878 20.2642 8.57728 20.3363C10.1043 21.2617 11.8458 21.7507 13.6135 21.7507C18.9895 21.7507 23.3635 17.3767 23.3635 12.0007C23.3635 6.62475 18.9895 2.25 13.6135 2.25C8.23752 2.25 3.86353 6.624 3.86353 12C3.86353 13.7677 4.35253 15.5092 5.27728 17.0363C5.38678 17.2178 5.41528 17.4375 5.35453 17.64L4.23253 21.381L7.97278 20.2582C8.04328 20.2372 8.11603 20.2275 8.18878 20.2275ZM15.337 19.2892C13.9638 19.2892 12.6153 18.6607 11.7333 17.4907C11.035 16.5652 10.381 15.5887 9.78778 14.589C9.19528 13.59 8.65303 12.5475 8.17603 11.49C7.22878 9.393 8.00428 6.92775 9.98128 5.75625L10.48 5.46075C10.8243 5.25675 11.227 5.199 11.6163 5.298C12.0048 5.397 12.331 5.6415 12.535 5.9865L13.6825 7.9215C13.8865 8.26575 13.945 8.67 13.8453 9.05775C13.7463 9.44625 13.5018 9.7725 13.1568 9.9765C12.8013 10.1873 12.6835 10.6485 12.8943 11.004L14.4243 13.5848C14.635 13.9403 15.0963 14.058 15.4518 13.8472C15.7968 13.6432 16.201 13.5848 16.5888 13.6845C16.9773 13.7835 17.3035 14.028 17.5075 14.373L18.655 16.308C19.0765 17.019 18.841 17.9415 18.13 18.363L17.6305 18.6585C16.9128 19.0837 16.1215 19.2885 15.3378 19.2885L15.337 19.2892ZM11.2443 6.75075L10.7455 7.047C9.42778 7.8285 8.91103 9.4725 9.54253 10.8727C9.99703 11.88 10.5138 12.873 11.0778 13.8248C11.6418 14.7773 12.265 15.7065 12.9303 16.5885C13.855 17.8148 15.5455 18.1515 16.8648 17.37L17.3635 17.0745L16.216 15.1388C15.6985 15.4455 15.0925 15.5317 14.5113 15.3832C13.9293 15.2347 13.4403 14.8673 13.1335 14.3512L11.6035 11.7705C10.9713 10.7032 11.3245 9.32025 12.3918 8.688L11.2443 6.75225V6.75075Z" fill="#00979E"/>
</g>
<defs>
<clipPath id="clip0_744_857">
<rect width="24" height="24" fill="white" transform="translate(0.613525)"/>
</clipPath>
</defs>
</svg>
