<svg width="25" height="24" viewBox="0 0 25 24" fill="none" xmlns="http://www.w3.org/2000/svg">
<g id="tracking 1" clip-path="url(#clip0_744_834)">
<g id="Group">
<path id="Vector" d="M18.7379 0H4.48847C3.35367 0 2.43042 0.92325 2.43042 2.05805V21.942C2.43042 23.0767 3.35367 24 4.48847 24H6.85805C7.05258 24 7.21031 23.8423 7.21031 23.6477C7.21031 23.4532 7.05262 23.2955 6.85805 23.2955H4.48847C3.74212 23.2955 3.1349 22.6883 3.1349 21.9419V2.05805C3.1349 1.3117 3.74212 0.704484 4.48847 0.704484H18.7379C19.4842 0.704484 20.0915 1.3117 20.0915 2.05805V21.942C20.0915 22.6883 19.4842 23.2955 18.7379 23.2955H8.26706C8.07253 23.2955 7.91479 23.4532 7.91479 23.6478C7.91479 23.8423 8.07253 24 8.26706 24H18.7379C19.8727 24 20.796 23.0768 20.796 21.942V2.05805C20.7959 0.92325 19.8727 0 18.7379 0Z" fill="#00979E"/>
<path id="Vector_2" d="M6.56827 2.52776H4.1821C3.98757 2.52776 3.82983 2.68549 3.82983 2.88002V20.2469C3.82983 20.4415 3.98757 20.5992 4.1821 20.5992H19.0441C19.2386 20.5992 19.3964 20.4415 19.3964 20.2469V2.87998C19.3964 2.68544 19.2386 2.52771 19.0441 2.52771H7.97729C7.78276 2.52771 7.62502 2.68544 7.62502 2.87998C7.62502 3.07451 7.78276 3.23224 7.97729 3.23224H18.6918V19.8946H4.53437V3.23224H6.56827C6.7628 3.23224 6.92054 3.07455 6.92054 2.87998C6.92054 2.6854 6.7628 2.52776 6.56827 2.52776Z" fill="#00979E"/>
<path id="Vector_3" d="M10.5417 21.8641C10.5417 22.455 11.0224 22.9356 11.6133 22.9356C12.2041 22.9356 12.6848 22.455 12.6848 21.8641C12.6848 21.2733 12.2041 20.7926 11.6133 20.7926C11.0224 20.7926 10.5417 21.2733 10.5417 21.8641ZM11.9803 21.8641C11.9803 22.0665 11.8157 22.2312 11.6133 22.2312C11.4109 22.2312 11.2462 22.0665 11.2462 21.8641C11.2462 21.6617 11.4109 21.4971 11.6133 21.4971C11.8157 21.4971 11.9803 21.6618 11.9803 21.8641Z" fill="#00979E"/>
<path id="Vector_4" d="M13.1318 1.96125C13.3263 1.96125 13.484 1.80351 13.484 1.60898C13.484 1.41445 13.3263 1.25671 13.1318 1.25671H11.5298C11.3352 1.25671 11.1775 1.4144 11.1775 1.60898C11.1775 1.80356 11.3352 1.96125 11.5298 1.96125H13.1318Z" fill="#00979E"/>
<path id="Vector_5" d="M16.0787 13.373H11.0151C10.8206 13.373 10.6628 13.5307 10.6628 13.7253C10.6628 13.9198 10.8206 14.0775 11.0151 14.0775H16.0787C16.2733 14.0775 16.431 13.9198 16.431 13.7253C16.431 13.5307 16.2733 13.373 16.0787 13.373Z" fill="#00979E"/>
<path id="Vector_6" d="M11.0151 15.3387H13.9134C14.108 15.3387 14.2657 15.181 14.2657 14.9864C14.2657 14.7918 14.108 14.6342 13.9134 14.6342H11.0151C10.8206 14.6342 10.6628 14.7919 10.6628 14.9864C10.6628 15.181 10.8206 15.3387 11.0151 15.3387Z" fill="#00979E"/>
<path id="Vector_7" d="M6.89512 14.019C6.75951 14.1585 6.7626 14.3815 6.9021 14.5171L7.71342 15.3061C7.83712 15.4227 8.05757 15.4505 8.21118 15.2995L9.74995 13.7216C9.88574 13.5823 9.88298 13.3593 9.74367 13.2235C9.60435 13.0877 9.38137 13.0904 9.24553 13.2297L7.95234 14.5558L7.39321 14.0121C7.25376 13.8764 7.03073 13.8795 6.89512 14.019Z" fill="#00979E"/>
<path id="Vector_8" d="M16.431 16.7976C16.431 16.603 16.2732 16.4453 16.0787 16.4453H11.0151C10.8206 16.4453 10.6628 16.603 10.6628 16.7976C10.6628 16.9921 10.8206 17.1498 11.0151 17.1498H16.0787C16.2733 17.1498 16.431 16.9921 16.431 16.7976Z" fill="#00979E"/>
<path id="Vector_9" d="M11.0151 17.7065C10.8206 17.7065 10.6628 17.8643 10.6628 18.0588C10.6628 18.2533 10.8206 18.4111 11.0151 18.4111H13.9134C14.108 18.4111 14.2657 18.2533 14.2657 18.0588C14.2657 17.8643 14.108 17.7065 13.9134 17.7065H11.0151Z" fill="#00979E"/>
<path id="Vector_10" d="M9.24553 16.3021L7.95234 17.6282L7.39321 17.0845C7.25376 16.9489 7.03073 16.9519 6.89512 17.0914C6.75951 17.2309 6.7626 17.4539 6.9021 17.5895L7.71342 18.3785C7.83712 18.4951 8.05757 18.523 8.21118 18.3719L9.74995 16.794C9.88574 16.6547 9.88298 16.4317 9.74367 16.2958C9.60435 16.1601 9.38132 16.1628 9.24553 16.3021Z" fill="#00979E"/>
<path id="Vector_11" d="M15.186 4.6488H8.0405C7.84597 4.6488 7.68823 4.80654 7.68823 5.00107V11.8033C7.68823 11.9978 7.84597 12.1556 8.0405 12.1556H11.9332C12.1278 12.1556 12.2855 11.9978 12.2855 11.8033C12.2855 11.6088 12.1278 11.451 11.9332 11.451H8.39276V5.35329H10.2365V7.31566C10.2432 7.53424 10.451 7.7343 10.7088 7.64683L11.6131 7.31894L12.5177 7.64683C12.7128 7.72441 12.995 7.56902 12.9899 7.31566V5.35329H14.8337V11.451H13.3422C13.1477 11.451 12.9899 11.6087 12.9899 11.8033C12.9899 11.9978 13.1477 12.1556 13.3422 12.1556H15.186C15.3805 12.1556 15.5382 11.9978 15.5382 11.8033V5.00102C15.5382 4.80649 15.3806 4.6488 15.186 4.6488ZM12.2855 6.8133L11.7332 6.6131C11.6556 6.58498 11.5707 6.58502 11.4931 6.61315L10.941 6.8133V5.35333H12.2855V6.8133Z" fill="#00979E"/>
<path id="Vector_12" d="M9.39572 9.7038H10.5085C10.7031 9.7038 10.8608 9.54606 10.8608 9.35153C10.8608 9.157 10.7031 8.99927 10.5085 8.99927H9.39572C9.20119 8.99927 9.04346 9.157 9.04346 9.35153C9.04346 9.54606 9.20119 9.7038 9.39572 9.7038Z" fill="#00979E"/>
<path id="Vector_13" d="M9.39553 10.8447H11.6131C11.8076 10.8447 11.9654 10.6869 11.9654 10.4924C11.9654 10.2979 11.8076 10.1401 11.6131 10.1401H9.39548C9.20095 10.1401 9.04321 10.2979 9.04321 10.4924C9.04326 10.687 9.20099 10.8447 9.39553 10.8447Z" fill="#00979E"/>
<path id="Vector_14" d="M10.1877 1.96125C10.3823 1.96125 10.54 1.80353 10.54 1.60898C10.54 1.41443 10.3823 1.25671 10.1877 1.25671C9.99316 1.25671 9.83545 1.41443 9.83545 1.60898C9.83545 1.80353 9.99316 1.96125 10.1877 1.96125Z" fill="#00979E"/>
</g>
</g>
<defs>
<clipPath id="clip0_744_834">
<rect width="24" height="24" fill="white" transform="translate(0.613525)"/>
</clipPath>
</defs>
</svg>
