<svg width="25" height="24" viewBox="0 0 25 24" fill="none" xmlns="http://www.w3.org/2000/svg">
<g id="ep:setting" clip-path="url(#clip0_744_820)">
<path id="Vector" d="M12.6924 1.5C12.8512 1.50001 13.0059 1.55041 13.1342 1.64394C13.2625 1.73748 13.3579 1.86933 13.4064 2.0205L14.2314 4.584C14.5779 4.7535 14.9094 4.944 15.2259 5.1585L17.8599 4.5915C18.0152 4.55834 18.1771 4.57534 18.3221 4.64003C18.4671 4.70473 18.5879 4.81379 18.6669 4.9515L20.7459 8.55C20.8253 8.68763 20.859 8.84693 20.842 9.0049C20.825 9.16288 20.7583 9.31139 20.6514 9.429L18.8439 11.424C18.8703 11.8065 18.8703 12.1905 18.8439 12.573L20.6514 14.571C20.7583 14.6886 20.825 14.8371 20.842 14.9951C20.859 15.1531 20.8253 15.3124 20.7459 15.45L18.6669 19.05C18.5877 19.1874 18.4668 19.2962 18.3218 19.3606C18.1768 19.425 18.0151 19.4418 17.8599 19.4085L15.2259 18.8415C14.9109 19.0545 14.5779 19.2465 14.2329 19.416L13.4064 21.9795C13.3579 22.1307 13.2625 22.2625 13.1342 22.3561C13.0059 22.4496 12.8512 22.5 12.6924 22.5H8.53444C8.37566 22.5 8.22097 22.4496 8.09266 22.3561C7.96435 22.2625 7.86903 22.1307 7.82044 21.9795L6.99694 19.4175C6.65137 19.2485 6.31806 19.0555 5.99944 18.84L3.36694 19.4085C3.21164 19.4417 3.04982 19.4247 2.9048 19.36C2.75977 19.2953 2.63902 19.1862 2.55994 19.0485L0.480944 15.45C0.401555 15.3124 0.367929 15.1531 0.384913 14.9951C0.401897 14.8371 0.468614 14.6886 0.575444 14.571L2.38294 12.573C2.35676 12.1914 2.35676 11.8086 2.38294 11.427L0.575444 9.429C0.468614 9.31139 0.401897 9.16288 0.384913 9.0049C0.367929 8.84693 0.401555 8.68763 0.480944 8.55L2.55994 4.95C2.63924 4.81256 2.76008 4.70381 2.90509 4.63939C3.0501 4.57497 3.2118 4.55821 3.36694 4.5915L5.99944 5.16C6.31744 4.9455 6.65044 4.752 6.99694 4.5825L7.82194 2.0205C7.87037 1.86982 7.96523 1.73832 8.09294 1.64482C8.22066 1.55133 8.37467 1.50064 8.53294 1.5H12.6909H12.6924ZM12.1434 3H9.08344L8.23144 5.6505L7.65694 5.931C7.37452 6.06921 7.10188 6.22657 6.84094 6.402L6.30994 6.762L3.58594 6.174L2.05594 8.826L3.92344 10.893L3.87844 11.529C3.85689 11.8426 3.85689 12.1574 3.87844 12.471L3.92344 13.107L2.05294 15.174L3.58444 17.826L6.30844 17.2395L6.83944 17.598C7.10038 17.7734 7.37302 17.9308 7.65544 18.069L8.22994 18.3495L9.08344 21H12.1464L13.0014 18.348L13.5744 18.069C13.8566 17.9311 14.1287 17.7737 14.3889 17.598L14.9184 17.2395L17.6439 17.826L19.1739 15.174L17.3049 13.107L17.3499 12.471C17.3716 12.1569 17.3716 11.8416 17.3499 11.5275L17.3049 10.8915L19.1754 8.826L17.6439 6.174L14.9184 6.759L14.3889 6.402C14.1287 6.22622 13.8566 6.06884 13.5744 5.931L13.0014 5.652L12.1449 3H12.1434ZM10.6134 7.5C11.8069 7.5 12.9515 7.97411 13.7954 8.81802C14.6393 9.66193 15.1134 10.8065 15.1134 12C15.1134 13.1935 14.6393 14.3381 13.7954 15.182C12.9515 16.0259 11.8069 16.5 10.6134 16.5C9.41997 16.5 8.27538 16.0259 7.43146 15.182C6.58755 14.3381 6.11344 13.1935 6.11344 12C6.11344 10.8065 6.58755 9.66193 7.43146 8.81802C8.27538 7.97411 9.41997 7.5 10.6134 7.5ZM10.6134 9C9.81779 9 9.05473 9.31607 8.49212 9.87868C7.92951 10.4413 7.61344 11.2044 7.61344 12C7.61344 12.7956 7.92951 13.5587 8.49212 14.1213C9.05473 14.6839 9.81779 15 10.6134 15C11.4091 15 12.1722 14.6839 12.7348 14.1213C13.2974 13.5587 13.6134 12.7956 13.6134 12C13.6134 11.2044 13.2974 10.4413 12.7348 9.87868C12.1722 9.31607 11.4091 9 10.6134 9Z" fill="#00979E"/>
</g>
<defs>
<clipPath id="clip0_744_820">
<rect width="24" height="24" fill="white" transform="translate(0.613525)"/>
</clipPath>
</defs>
</svg>
