<svg width="25" height="24" viewBox="0 0 25 24" fill="none" xmlns="http://www.w3.org/2000/svg">
<g id="subscribe (1) 1" clip-path="url(#clip0_744_825)">
<g id="Clip path group">
<mask id="mask0_744_825" style="mask-type:luminance" maskUnits="userSpaceOnUse" x="0" y="0" width="25" height="24">
<g id="clip_1">
<path id="artboard_1" fill-rule="evenodd" clip-rule="evenodd" d="M0.613525 0H24.6135V24H0.613525V0Z" fill="white"/>
</g>
</mask>
<g mask="url(#mask0_744_825)">
<g id="subscribe">
<path id="Vector" fill-rule="evenodd" clip-rule="evenodd" d="M13.8897 1.49815C12.8633 0.999382 11.7715 0.75 10.6142 0.75H10.6129C8.6783 0.75 6.9935 1.39869 5.5585 2.69606C4.12347 3.99343 3.30875 5.60449 3.11433 7.52925L2.47844 13.8246C1.40183 14.323 0.863525 15.2145 0.863525 16.4993V16.5007C0.863525 18.5002 1.86328 19.5 3.86278 19.5H6.1703C6.31475 20.425 6.7352 21.2356 7.43157 21.9319C8.3102 22.8106 9.37085 23.25 10.6135 23.25C11.8562 23.25 12.9169 22.8106 13.7955 21.9319C14.4918 21.2356 14.9123 20.425 15.0567 19.5H17.3643C19.3638 19.5 20.3635 18.5002 20.3635 16.5007V16.4993C20.3635 15.2145 19.8253 14.323 18.7486 13.8246L18.4566 10.9331L18.4645 10.9302C20.7305 10.1859 21.8635 8.5425 21.8635 6C21.8635 4.55025 21.351 3.31281 20.3258 2.28769C19.3007 1.26257 18.0633 0.75 16.6135 0.75C15.6023 0.75 14.6944 0.999382 13.8897 1.49815ZM12.6192 2.58985C11.7821 3.55319 11.3635 4.68991 11.3635 6C11.3635 7.44975 11.8761 8.68718 12.9013 9.71228C13.9264 10.7375 15.1638 11.25 16.6135 11.25C16.7371 11.25 16.8592 11.2463 16.9798 11.2388L17.3023 14.4319C17.3173 14.5806 17.3718 14.7129 17.4659 14.8289C17.5599 14.9449 17.6781 15.0257 17.8204 15.071C18.5158 15.2932 18.8635 15.7692 18.8635 16.4993V16.5007C18.8635 16.9147 18.7171 17.2682 18.4244 17.5609C18.1317 17.8536 17.7783 18 17.3643 18H3.86278C2.86327 18 2.36353 17.5003 2.36353 16.5007V16.4993C2.36353 15.7692 2.71124 15.2932 3.40668 15.071C3.54895 15.0257 3.6671 14.9449 3.76114 14.8289C3.85519 14.7129 3.90971 14.5806 3.92472 14.4319L4.60674 7.68C4.76246 6.13832 5.41503 4.8479 6.56443 3.80874C7.71388 2.76958 9.06335 2.25 10.6129 2.25H10.6142C11.3123 2.25 11.9806 2.36329 12.6192 2.58985ZM14.3369 3.01564C14.2078 3.11657 14.0827 3.22747 13.9619 3.34835C13.2297 4.08059 12.8635 4.96447 12.8635 6C12.8635 7.03553 13.2297 7.9194 13.9619 8.65162C14.6941 9.38385 15.578 9.75 16.6135 9.75C16.8821 9.75 17.1406 9.7254 17.3887 9.67612C17.4166 9.66615 17.4455 9.65768 17.4753 9.6507C17.6322 9.6138 17.7826 9.57187 17.9267 9.52485C18.4183 9.34342 18.8644 9.05235 19.2652 8.65162C19.9974 7.9194 20.3635 7.03553 20.3635 6C20.3635 5.93528 20.3621 5.87115 20.3593 5.80762C20.3164 4.85457 19.9516 4.03482 19.2652 3.34835C18.5329 2.61611 17.649 2.25 16.6135 2.25H16.6105C15.7899 2.2506 15.0504 2.49345 14.392 2.97855C14.3739 2.99182 14.3556 3.00418 14.3369 3.01564ZM15.6439 5.09467L15.909 5.35984L16.2385 5.68934L16.8976 5.03033L17.9582 3.96967C18.1047 3.82322 18.2815 3.75 18.4885 3.75C18.6956 3.75 18.8724 3.82322 19.0189 3.96967C19.0892 4.03999 19.1434 4.1211 19.1814 4.21299C19.2195 4.30487 19.2385 4.40054 19.2385 4.5C19.2385 4.59946 19.2195 4.69513 19.1814 4.78701C19.1434 4.8789 19.0892 4.96 19.0189 5.03033L16.7689 7.28033C16.6224 7.42678 16.4456 7.5 16.2385 7.5C16.0315 7.5 15.8547 7.42678 15.7082 7.28033L14.5832 6.15533C14.5129 6.08501 14.4587 6.0039 14.4206 5.91201C14.3826 5.82013 14.3635 5.72446 14.3635 5.625C14.3635 5.52554 14.3826 5.42987 14.4206 5.33799C14.4587 5.2461 14.5129 5.165 14.5832 5.09467C14.7297 4.94822 14.9065 4.875 15.1135 4.875C15.3206 4.875 15.4974 4.94822 15.6439 5.09467ZM10.6135 21.75C8.88148 21.75 7.89943 21 7.66738 19.5H13.5597C13.3276 21 12.3456 21.75 10.6135 21.75Z" fill="#00979E"/>
</g>
</g>
</g>
</g>
<defs>
<clipPath id="clip0_744_825">
<rect width="24" height="24" fill="white" transform="translate(0.613525)"/>
</clipPath>
</defs>
</svg>
