<svg id="light-bulb" xmlns="http://www.w3.org/2000/svg" width="52.292" height="59.073" viewBox="0 0 52.292 59.073">
  <g id="Group_27819" data-name="Group 27819" transform="translate(0.026 0.765)">
    <path id="Path_186232" data-name="Path 186232" d="M117.339,6.622a18.079,18.079,0,0,0-9.209,33.651,3.11,3.11,0,0,1,1.517,2.68v4.4a1.47,1.47,0,0,1,.568-.114h14.2a1.472,1.472,0,0,1,.568.114v-4.4a3.142,3.142,0,0,1,1.549-2.7,18.079,18.079,0,0,0-9.192-33.633Z" transform="translate(-91.182 -6.622)" fill="#ffe07d"/>
    <g id="Group_27811" data-name="Group 27811" transform="translate(8.055)">
      <path id="Path_186233" data-name="Path 186233" d="M114.426,42.954a3.11,3.11,0,0,0-1.517-2.68,18.08,18.08,0,0,1,6.8-33.494,18.08,18.08,0,0,0-11.578,33.494,3.11,3.11,0,0,1,1.517,2.68v4.4a1.469,1.469,0,0,1,.568-.114h4.21Z" transform="translate(-99.237 -6.622)" fill="#ffc250"/>
    </g>
    <g id="Group_27812" data-name="Group 27812" transform="translate(31.646 4.873)">
      <path id="Path_186234" data-name="Path 186234" d="M310.416,58.441a12.566,12.566,0,0,0-6.613-8.02.867.867,0,0,1,.763-1.557,14.3,14.3,0,0,1,7.524,9.128.867.867,0,1,1-1.675.449Z" transform="translate(-303.317 -48.776)" fill="#ffeac8"/>
    </g>
    <path id="Path_186235" data-name="Path 186235" d="M225.341,467.843v.635a3.5,3.5,0,1,0,7,0v-.635Z" transform="translate(-202.709 -414.527)" fill="#5bc4bf"/>
    <path id="Path_186236" data-name="Path 186236" d="M228.474,468.477v-.635H225.34v.635a3.511,3.511,0,0,0,3.5,3.5,3.469,3.469,0,0,0,1.567-.374A3.511,3.511,0,0,1,228.474,468.477Z" transform="translate(-202.708 -414.526)" fill="#00979e"/>
    <g id="Group_27813" data-name="Group 27813" transform="translate(0 16.749)">
      <path id="Path_186237" data-name="Path 186237" d="M33.408,153.242H30.426a.867.867,0,1,1,0-1.734h2.982a.867.867,0,1,1,0,1.734Z" transform="translate(-29.559 -151.508)" fill="#ffc250"/>
    </g>
    <g id="Group_27814" data-name="Group 27814" transform="translate(1.353 10.245)">
      <path id="Path_186238" data-name="Path 186238" d="M44.608,97.982l-2.788-1.058a.867.867,0,0,1,.615-1.621l2.788,1.058a.867.867,0,1,1-.615,1.621Z" transform="translate(-41.26 -95.246)" fill="#ffc250"/>
    </g>
    <g id="Group_27815" data-name="Group 27815" transform="translate(1.353 22.194)">
      <path id="Path_186239" data-name="Path 186239" d="M41.317,200.845a.867.867,0,0,1,.5-1.118l2.788-1.058a.867.867,0,0,1,.615,1.621l-2.788,1.058A.867.867,0,0,1,41.317,200.845Z" transform="translate(-41.26 -198.612)" fill="#ffc250"/>
    </g>
    <g id="Group_27816" data-name="Group 27816" transform="translate(47.549 16.749)">
      <path id="Path_186240" data-name="Path 186240" d="M444.744,153.242h-2.983a.867.867,0,1,1,0-1.734h2.983a.867.867,0,0,1,0,1.734Z" transform="translate(-440.894 -151.508)" fill="#ffc250"/>
    </g>
    <g id="Group_27817" data-name="Group 27817" transform="translate(46.39 10.245)">
      <path id="Path_186241" data-name="Path 186241" d="M430.925,97.479a.867.867,0,0,1,.5-1.118l2.788-1.058a.867.867,0,1,1,.615,1.621l-2.788,1.058A.867.867,0,0,1,430.925,97.479Z" transform="translate(-430.868 -95.246)" fill="#ffc250"/>
    </g>
    <g id="Group_27818" data-name="Group 27818" transform="translate(46.391 22.194)">
      <path id="Path_186242" data-name="Path 186242" d="M434.217,201.348l-2.788-1.058a.867.867,0,1,1,.615-1.621l2.788,1.058a.867.867,0,1,1-.615,1.621Z" transform="translate(-430.869 -198.612)" fill="#ffc250"/>
    </g>
    <path id="Path_186243" data-name="Path 186243" d="M204.588,430.987H192.7a1.506,1.506,0,0,0-1.5,1.5v1.281a1.506,1.506,0,0,0,1.5,1.5h11.887a1.506,1.506,0,0,0,1.5-1.5v-1.281A1.506,1.506,0,0,0,204.588,430.987Z" transform="translate(-172.511 -381.931)" fill="#efecef"/>
    <path id="Path_186244" data-name="Path 186244" d="M204.588,441.336H192.7a1.506,1.506,0,0,1-1.44-1.072,1.5,1.5,0,0,0-.064.432v1.281a1.506,1.506,0,0,0,1.5,1.5h11.887a1.506,1.506,0,0,0,1.5-1.5V440.7a1.5,1.5,0,0,0-.064-.432A1.507,1.507,0,0,1,204.588,441.336Z" transform="translate(-172.511 -390.136)" fill="#e2dfe2"/>
    <path id="Path_186245" data-name="Path 186245" d="M196.9,394.381h-14.2a1.506,1.506,0,0,0-1.5,1.5v1.281a1.506,1.506,0,0,0,1.5,1.5h14.2a1.506,1.506,0,0,0,1.5-1.5v-1.281A1.506,1.506,0,0,0,196.9,394.381Z" transform="translate(-163.672 -349.557)" fill="#efecef"/>
    <path id="Path_186246" data-name="Path 186246" d="M196.9,404.729h-14.2a1.507,1.507,0,0,1-1.44-1.072,1.5,1.5,0,0,0-.064.432v1.281a1.506,1.506,0,0,0,1.5,1.5h14.2a1.506,1.506,0,0,0,1.5-1.5v-1.281a1.5,1.5,0,0,0-.064-.432A1.506,1.506,0,0,1,196.9,404.729Z" transform="translate(-163.672 -357.761)" fill="#e2dfe2"/>
    <path id="Path_186247" data-name="Path 186247" d="M196.9,357.775h-14.2a1.506,1.506,0,0,0-1.5,1.5v1.281a1.506,1.506,0,0,0,1.5,1.5h14.2a1.506,1.506,0,0,0,1.5-1.5v-1.281A1.506,1.506,0,0,0,196.9,357.775Z" transform="translate(-163.672 -317.182)" fill="#efecef"/>
    <path id="Path_186248" data-name="Path 186248" d="M196.9,368.124h-14.2a1.507,1.507,0,0,1-1.44-1.072,1.5,1.5,0,0,0-.064.432v1.281a1.506,1.506,0,0,0,1.5,1.5h14.2a1.506,1.506,0,0,0,1.5-1.5v-1.281a1.5,1.5,0,0,0-.064-.432A1.506,1.506,0,0,1,196.9,368.124Z" transform="translate(-163.672 -325.387)" fill="#e2dfe2"/>
  </g>
  <g id="Group_27820" data-name="Group 27820">
    <path id="Path_186249" data-name="Path 186249" d="M304.336,48.766a.867.867,0,1,0-.763,1.557,12.566,12.566,0,0,1,6.613,8.02.867.867,0,0,0,1.675-.449A14.3,14.3,0,0,0,304.336,48.766Z" transform="translate(-271.442 -43.05)"/>
    <path id="Path_186250" data-name="Path 186250" d="M34.046,152.277a.867.867,0,0,0-.867-.867H30.2a.867.867,0,0,0,0,1.734h2.982A.867.867,0,0,0,34.046,152.277Z" transform="translate(-29.33 -133.907)"/>
    <path id="Path_186251" data-name="Path 186251" d="M44.994,96.262,42.206,95.2a.867.867,0,0,0-.615,1.621l2.788,1.058a.867.867,0,1,0,.615-1.621Z" transform="translate(-39.678 -84.148)"/>
    <path id="Path_186252" data-name="Path 186252" d="M44.379,198.57l-2.788,1.058a.867.867,0,0,0,.615,1.621l2.788-1.058a.867.867,0,1,0-.615-1.621Z" transform="translate(-39.679 -175.566)"/>
    <path id="Path_186253" data-name="Path 186253" d="M444.515,151.41h-2.983a.867.867,0,1,0,0,1.734h2.983a.867.867,0,0,0,0-1.734Z" transform="translate(-393.116 -133.907)"/>
    <path id="Path_186254" data-name="Path 186254" d="M431.815,97.884l2.788-1.058a.867.867,0,0,0-.615-1.621L431.2,96.262a.867.867,0,0,0,.615,1.621Z" transform="translate(-384.25 -84.149)"/>
    <path id="Path_186255" data-name="Path 186255" d="M434.6,199.629l-2.788-1.058a.867.867,0,0,0-.615,1.621l2.788,1.058a.867.867,0,1,0,.615-1.621Z" transform="translate(-384.249 -175.566)"/>
    <path id="Path_186256" data-name="Path 186256" d="M266.169,1.729a17.167,17.167,0,0,1,15.122,14.736.867.867,0,1,0,1.718-.236A18.953,18.953,0,0,0,266.361.006a.867.867,0,0,0-.192,1.723Z" transform="translate(-238.109 -0.001)"/>
    <path id="Path_186257" data-name="Path 186257" d="M128.538,19.535a.869.869,0,0,0-.938.79,17.244,17.244,0,0,1-8.372,13.323,4.03,4.03,0,0,0-1.973,3.444v3.423h-3.669V33.622a1.818,1.818,0,0,1,.378-1.106L115.2,30.91a3.562,3.562,0,0,0,.739-2.166V22.475a.867.867,0,0,0,0-1.734v-.095a.867.867,0,1,0-1.734,0v.094H106.7v-.094a.867.867,0,1,0-1.734,0v.094a.867.867,0,0,0,0,1.734v6.269a3.562,3.562,0,0,0,.739,2.166l1.241,1.606a1.82,1.82,0,0,1,.378,1.106v6.892h-3.669V37.092a3.991,3.991,0,0,0-1.943-3.427,17.212,17.212,0,0,1,6.817-31.93.867.867,0,0,0-.193-1.723,18.946,18.946,0,0,0-7.506,35.145,2.25,2.25,0,0,1,1.091,1.934v3.918a2.338,2.338,0,0,0-.907,1.847v1.281a2.331,2.331,0,0,0,.525,1.475,2.331,2.331,0,0,0-.525,1.475v1.281a2.343,2.343,0,0,0,1.317,2.1,2.328,2.328,0,0,0-.161.848V52.6a2.345,2.345,0,0,0,2.342,2.342h1.582a4.368,4.368,0,0,0,8.724,0H116.4a2.345,2.345,0,0,0,2.342-2.342V51.32a2.328,2.328,0,0,0-.161-.848,2.343,2.343,0,0,0,1.317-2.1V47.088a2.331,2.331,0,0,0-.525-1.475,2.331,2.331,0,0,0,.525-1.475V42.857a2.337,2.337,0,0,0-.907-1.847V37.091a2.289,2.289,0,0,1,1.125-1.953,18.981,18.981,0,0,0,9.214-14.666.867.867,0,0,0-.79-.937ZM107.078,29.85a1.819,1.819,0,0,1-.377-1.106V22.475h7.509v6.269a1.818,1.818,0,0,1-.377,1.106l-1.241,1.606a3.561,3.561,0,0,0-.739,2.166v6.892h-2.795V33.622a3.562,3.562,0,0,0-.739-2.166Zm3.377,27.5a2.637,2.637,0,0,1-2.624-2.4h5.248a2.638,2.638,0,0,1-2.624,2.4Zm6.552-4.745a.609.609,0,0,1-.609.609H104.512a.609.609,0,0,1-.609-.609V51.32a.609.609,0,0,1,.609-.609H116.4a.609.609,0,0,1,.609.609Zm1.155-4.232a.609.609,0,0,1-.609.609h-14.2a.609.609,0,0,1-.609-.609V47.088a.609.609,0,0,1,.609-.609h14.2a.609.609,0,0,1,.609.609Zm0-4.232a.609.609,0,0,1-.609.609h-14.2a.609.609,0,0,1-.609-.609V42.857a.614.614,0,0,1,.609-.609h14.2a.613.613,0,0,1,.609.609Z" transform="translate(-84.322 -0.006)"/>
  </g>
</svg>
