<svg width="153" height="152" viewBox="0 0 153 152" fill="none" xmlns="http://www.w3.org/2000/svg">
<path d="M63.3892 107.705L63.8006 108.116L64.2121 107.705L120.951 50.9659L121.361 50.5559L120.952 50.1444L112.063 41.1923L111.652 40.7779L111.239 41.1908L63.8001 88.6297L41.5791 66.4706L41.1676 66.0602L40.7566 66.4711L31.8676 75.3602L31.4561 75.7717L31.8676 76.1832L63.3892 107.705ZM13.948 75.7717C13.948 41.4193 42.0569 13.3105 76.4093 13.3105C110.762 13.3105 138.871 41.4193 138.871 75.7717C138.871 110.124 110.762 138.233 76.4093 138.233C42.0569 138.233 13.948 110.124 13.948 75.7717Z" fill="#12CC46" stroke="#12CC46" stroke-width="1.16387"/>
</svg>
