<svg id="Group_10985" data-name="Group 10985" xmlns="http://www.w3.org/2000/svg" width="132.336" height="42.048" viewBox="0 0 132.336 42.048">
  <g id="Group_10974" data-name="Group 10974" transform="translate(0 0)">
    <g id="Group_10972" data-name="Group 10972">
      <path id="Path_21377" data-name="Path 21377" d="M480.424,276.568H354.776a1.7,1.7,0,0,0-.265-.073,3.377,3.377,0,0,1-2.938-2.518c-.043-.157-.093-.312-.141-.469v-35.93a1.9,1.9,0,0,0,.083-.227,3.34,3.34,0,0,1,2.612-2.693c.215-.054.433-.093.649-.138H480.424a1.7,1.7,0,0,0,.266.073,3.377,3.377,0,0,1,2.938,2.518c.043.157.093.312.141.468v35.93a1.908,1.908,0,0,0-.083.228,3.343,3.343,0,0,1-2.612,2.693C480.858,276.484,480.64,276.523,480.424,276.568Zm-48.67-20.2-.1,0c-.039-.12-.08-.239-.116-.36q-.926-3.118-1.852-6.236a1.6,1.6,0,0,0-1.558-1.23c-.841-.023-1.683-.013-2.525,0a.492.492,0,0,0-.546.558,2.064,2.064,0,0,0,.078.56c.1.365.225.724.342,1.085q1.7,5.3,3.406,10.592a1.638,1.638,0,0,0,1.679,1.217c.522,0,1.043,0,1.565,0a1.678,1.678,0,0,0,1.771-1.29q1.106-3.49,2.2-6.984c.036-.113.081-.223.155-.425.079.226.124.347.163.469q1.094,3.476,2.187,6.952a1.683,1.683,0,0,0,1.747,1.278q.765,0,1.529,0a1.653,1.653,0,0,0,1.751-1.264q1.579-4.888,3.146-9.78c.228-.71.471-1.418.652-2.141.142-.565-.1-.828-.682-.831-.688,0-1.375,0-2.063,0a1.735,1.735,0,0,0-1.937,1.453q-.8,2.728-1.612,5.455c-.092.312-.194.622-.292.933a1.7,1.7,0,0,1-.266-.585c-.6-2.035-1.188-4.072-1.789-6.106a1.439,1.439,0,0,0-1.544-1.148q-.96,0-1.92,0a1.466,1.466,0,0,0-1.632,1.221c-.369,1.238-.725,2.479-1.088,3.719Q432.181,254.922,431.754,256.368Zm-11.973,5.059c.019.114.031.16.033.206.043.705.267.919.971.92.688,0,1.375,0,2.062,0,.626,0,.882-.259.883-.89q0-4,0-8a5.479,5.479,0,0,0-.558-2.51,5.066,5.066,0,0,0-3.545-2.608,13.145,13.145,0,0,0-4.277-.2,9.049,9.049,0,0,0-3,.681,3.026,3.026,0,0,0-1.972,2.682c-.049.664.254,1.018.91,1.021.557,0,1.114,0,1.671,0a1.857,1.857,0,0,0,1.474-.658,2.312,2.312,0,0,1,.6-.485,3.75,3.75,0,0,1,1.889-.412c1.652.011,2.324.635,2.5,2.266.036.334-.061.438-.395.434-1.315-.014-2.631-.008-3.947-.005a7.74,7.74,0,0,0-2.92.528,4.034,4.034,0,0,0-2.784,3.864,4.084,4.084,0,0,0,2.562,3.915,7.661,7.661,0,0,0,2.9.638,7.5,7.5,0,0,0,4.362-1.026C419.379,261.676,419.557,261.565,419.781,261.427Zm48.643.072a4.364,4.364,0,0,1-.905,1.907,2.034,2.034,0,0,1-1.956.672,14.229,14.229,0,0,0-1.621-.168.727.727,0,0,0-.806.791c-.01.415,0,.83,0,1.245a.812.812,0,0,0,.806.936c1.118.116,2.24.245,3.362.256a4.345,4.345,0,0,0,4.1-2.461,14.5,14.5,0,0,0,1.158-2.78c1.18-4.149,2.3-8.315,3.437-12.475.157-.575-.088-.883-.7-.885q-1.192,0-2.383,0a1.121,1.121,0,0,0-1.154.865c-.081.273-.153.548-.229.822-.718,2.6-1.441,5.208-2.15,7.815-.078.284-.207.353-.482.29a1.881,1.881,0,0,1-1.079-.7,6.709,6.709,0,0,1-1.085-2.225c-.613-1.969-1.2-3.945-1.8-5.917a1.218,1.218,0,0,0-1.256-.947c-.806,0-1.612-.006-2.418,0-.561,0-.795.321-.632.864.664,2.213,1.32,4.429,2.009,6.635a10.98,10.98,0,0,0,1.735,3.523,4.552,4.552,0,0,0,2.89,1.793C467.628,261.414,467.993,261.446,468.424,261.5Zm-69.747-5.982h-.022q0,3.041,0,6.083c0,.717.241.952.967.953q1.174,0,2.348,0c.744,0,.978-.234.978-.977,0-2.454.006-4.909-.006-7.363,0-.328.1-.426.424-.422,1.34.015,2.68.009,4.019,0a.771.771,0,0,0,.868-.85c.01-.427,0-.854,0-1.281,0-.7-.246-.937-.947-.938-1.316,0-2.632-.01-3.948.006-.334,0-.448-.115-.415-.434.036-.353.034-.711.078-1.063a2.033,2.033,0,0,1,1.628-2.035,7.574,7.574,0,0,1,3.174-.12,7.1,7.1,0,0,0,1.2.1.768.768,0,0,0,.867-.849c.01-.391.005-.783,0-1.174a.85.85,0,0,0-.8-.956c-.443-.078-.89-.14-1.338-.178a16.449,16.449,0,0,0-5.234.247,4.29,4.29,0,0,0-3.367,2.8,8.484,8.484,0,0,0-.46,2.394C398.634,251.485,398.677,253.5,398.677,255.517Zm54.911-5.416c0-.307.006-.529,0-.751a.752.752,0,0,0-.827-.813q-1.316-.008-2.632,0a.757.757,0,0,0-.855.853q0,6.153,0,12.307a.758.758,0,0,0,.856.854c.818,0,1.636,0,2.454,0,.761,0,1-.24,1-.995,0-2.348.033-4.7-.019-7.043a2.041,2.041,0,0,1,.749-1.721,3.808,3.808,0,0,1,3.011-1.087,17.032,17.032,0,0,0,1.776.063.716.716,0,0,0,.79-.774c.02-.652.019-1.3,0-1.956a.722.722,0,0,0-.762-.767,7.96,7.96,0,0,0-4.549,1.159C454.278,249.63,453.978,249.839,453.588,250.1Z" transform="translate(-351.432 -234.52)" fill="#ffd328"/>
      <path id="Path_21378" data-name="Path 21378" d="M634.718,294.988q.426-1.446.851-2.893c.363-1.239.72-2.481,1.088-3.719a1.466,1.466,0,0,1,1.632-1.221q.96,0,1.92,0a1.439,1.439,0,0,1,1.544,1.148c.6,2.034,1.193,4.071,1.789,6.106a1.7,1.7,0,0,0,.266.585c.1-.311.2-.62.292-.933q.808-2.727,1.612-5.455a1.735,1.735,0,0,1,1.936-1.453c.688,0,1.375,0,2.063,0,.579,0,.824.265.682.831-.182.723-.424,1.43-.652,2.141q-1.569,4.891-3.146,9.78a1.653,1.653,0,0,1-1.751,1.264q-.764,0-1.529,0a1.683,1.683,0,0,1-1.747-1.278q-1.1-3.475-2.187-6.952c-.039-.122-.084-.243-.163-.469-.074.2-.119.311-.155.424q-1.1,3.492-2.2,6.984a1.678,1.678,0,0,1-1.771,1.29c-.522,0-1.043,0-1.565,0a1.638,1.638,0,0,1-1.679-1.217q-1.709-5.294-3.406-10.593c-.116-.361-.24-.72-.342-1.085a2.062,2.062,0,0,1-.078-.56.492.492,0,0,1,.546-.558c.842-.009,1.684-.019,2.525,0a1.6,1.6,0,0,1,1.558,1.23q.932,3.116,1.852,6.236c.036.121.077.24.116.36Z" transform="translate(-554.396 -273.14)" fill="#006e96"/>
      <path id="Path_21379" data-name="Path 21379" d="M579.512,299.306c-.224.138-.4.248-.581.357a7.5,7.5,0,0,1-4.362,1.026,7.657,7.657,0,0,1-2.9-.638,4.083,4.083,0,0,1-2.562-3.916,4.034,4.034,0,0,1,2.784-3.864,7.741,7.741,0,0,1,2.92-.528c1.315,0,2.631-.009,3.947.005.334,0,.431-.1.4-.434-.175-1.632-.847-2.255-2.5-2.266a3.752,3.752,0,0,0-1.889.412,2.316,2.316,0,0,0-.6.485,1.857,1.857,0,0,1-1.474.658c-.557,0-1.114,0-1.671,0-.656,0-.958-.357-.91-1.021a3.026,3.026,0,0,1,1.972-2.682,9.049,9.049,0,0,1,3-.681,13.147,13.147,0,0,1,4.277.2,5.066,5.066,0,0,1,3.545,2.609,5.475,5.475,0,0,1,.558,2.51q0,4,0,8c0,.631-.256.887-.883.89-.688,0-1.375,0-2.063,0-.7,0-.928-.215-.971-.92C579.543,299.466,579.531,299.42,579.512,299.306Zm-2.54-4.666v.019c-.651,0-1.3-.029-1.952.009a1.591,1.591,0,0,0-1.456.919,1.49,1.49,0,0,0,1.144,2.105,5.916,5.916,0,0,0,4.32-.992.456.456,0,0,0,.138-.333c.015-.461,0-.924.01-1.385.008-.266-.1-.352-.357-.347C578.2,294.648,577.587,294.64,576.971,294.64Z" transform="translate(-511.163 -272.399)" fill="#006e96"/>
      <path id="Path_21380" data-name="Path 21380" d="M769.312,300.129c-.432-.054-.8-.086-1.156-.148a4.551,4.551,0,0,1-2.89-1.793,10.978,10.978,0,0,1-1.735-3.523c-.689-2.206-1.345-4.422-2.009-6.635-.163-.544.071-.86.632-.864.806-.006,1.612,0,2.418,0a1.218,1.218,0,0,1,1.256.947c.6,1.972,1.192,3.948,1.8,5.917a6.71,6.71,0,0,0,1.085,2.225,1.88,1.88,0,0,0,1.079.7c.274.063.4-.006.481-.29q1.064-3.911,2.15-7.815c.076-.274.148-.549.229-.822a1.121,1.121,0,0,1,1.154-.865q1.192,0,2.383,0c.607,0,.852.31.695.885-1.138,4.16-2.257,8.326-3.437,12.475a14.519,14.519,0,0,1-1.158,2.78,4.345,4.345,0,0,1-4.1,2.461c-1.122-.011-2.244-.14-3.362-.256a.812.812,0,0,1-.806-.936c0-.415-.007-.83,0-1.245a.727.727,0,0,1,.806-.791,14.238,14.238,0,0,1,1.621.168,2.034,2.034,0,0,0,1.956-.672A4.363,4.363,0,0,0,769.312,300.129Z" transform="translate(-652.32 -273.149)" fill="#006e96"/>
      <path id="Path_21381" data-name="Path 21381" d="M528.85,281.46c0-2.015-.043-4.032.021-6.045a8.477,8.477,0,0,1,.46-2.395,4.29,4.29,0,0,1,3.367-2.8,16.447,16.447,0,0,1,5.234-.247c.448.037.9.1,1.338.178a.85.85,0,0,1,.8.956c0,.391.008.783,0,1.174a.768.768,0,0,1-.867.849,7.106,7.106,0,0,1-1.2-.1,7.572,7.572,0,0,0-3.173.12,2.033,2.033,0,0,0-1.628,2.035c-.045.352-.043.71-.078,1.063-.032.319.081.438.415.434,1.316-.015,2.632-.007,3.948-.006.7,0,.943.242.947.938,0,.427.008.854,0,1.281a.771.771,0,0,1-.868.85c-1.34,0-2.68.011-4.019,0-.325,0-.426.094-.424.422.012,2.454.007,4.909.006,7.363,0,.743-.234.976-.978.977q-1.174,0-2.348,0c-.726,0-.966-.236-.967-.953q0-3.041,0-6.083Z" transform="translate(-481.606 -260.463)" fill="#006e96"/>
      <path id="Path_21382" data-name="Path 21382" d="M723.294,288.011c.39-.262.691-.471,1-.669a7.959,7.959,0,0,1,4.549-1.159.722.722,0,0,1,.763.767c.017.652.018,1.3,0,1.956a.716.716,0,0,1-.79.774,17.015,17.015,0,0,1-1.775-.063,3.808,3.808,0,0,0-3.011,1.087,2.041,2.041,0,0,0-.749,1.722c.052,2.346.02,4.695.019,7.042,0,.754-.244.994-1,.995-.818,0-1.636,0-2.454,0a.758.758,0,0,1-.856-.854q0-6.153,0-12.307a.757.757,0,0,1,.855-.853q1.316-.006,2.632,0a.752.752,0,0,1,.827.813C723.3,287.482,723.294,287.7,723.294,288.011Z" transform="translate(-621.138 -272.43)" fill="#006e96"/>
      <path id="Path_21383" data-name="Path 21383" d="M588.86,318.061c.616,0,1.231.008,1.847,0,.256,0,.365.08.357.347-.014.461.005.924-.01,1.385a.457.457,0,0,1-.138.333,5.916,5.916,0,0,1-4.32.992,1.49,1.49,0,0,1-1.144-2.105,1.591,1.591,0,0,1,1.456-.919c.648-.038,1.3-.009,1.952-.009Z" transform="translate(-523.051 -295.82)" fill="#ffd328"/>
    </g>
    <g id="Group_10973" data-name="Group 10973" transform="translate(7.34 4.287)">
      <path id="Path_21384" data-name="Path 21384" d="M412.22,267.23a16.62,16.62,0,1,1-4.9-11.782A16.606,16.606,0,0,1,412.22,267.23Z" transform="translate(-379.007 -250.623)" fill="#fff"/>
      <path id="Path_21385" data-name="Path 21385" d="M417.888,312.072l-2.235-1.118s-3.813,6.943-10.478,9.9a16.58,16.58,0,0,1-6.312-3.688,11.43,11.43,0,0,0,6.319-3.414c4.068-4,5-6.2,5-6.2l-1.744-1.163a.872.872,0,0,1,.2-1.548l7.673-2.673a.872.872,0,0,1,1.15.709l1.14,8.686A.5.5,0,0,1,417.888,312.072Z" transform="translate(-393.577 -288.412)" fill="#006e96"/>
      <path id="Path_21386" data-name="Path 21386" d="M462.677,267.39a.505.505,0,0,1-.968-.1l-.512-2.941-3.792,1.179a.5.5,0,0,1-.607-.7,28.089,28.089,0,0,0,1.8-5.15,9.474,9.474,0,0,0-.282-5.348,16.611,16.611,0,0,1,6.05,3.837A21.734,21.734,0,0,1,462.677,267.39Z" transform="translate(-436.054 -253.345)" fill="#006e96"/>
    </g>
  </g>
</svg>
