<svg id="mastercard" xmlns="http://www.w3.org/2000/svg" width="30.211" height="18.126" viewBox="0 0 30.211 18.126">
  <path id="Path_10687" data-name="Path 10687" d="M219.726,109.863a9.063,9.063,0,1,1-18.126,0h0a9.063,9.063,0,1,1,18.126,0Z" transform="translate(-189.516 -100.8)" fill="#ffb600"/>
  <path id="Path_10688" data-name="Path 10688" d="M210.663,100.8a9.087,9.087,0,0,1,9.063,9.063h0a9.063,9.063,0,1,1-18.126,0" transform="translate(-189.516 -100.8)" fill="#f7981d"/>
  <path id="Path_10689" data-name="Path 10689" d="M352.8,100.8a9.087,9.087,0,0,1,9.063,9.063h0a9.056,9.056,0,0,1-9.063,9.063" transform="translate(-331.652 -100.8)" fill="#ff8500"/>
  <path id="Path_10690" data-name="Path 10690" d="M8.967,100.8a9.063,9.063,0,0,0,.1,18.126,9.169,9.169,0,0,0,6.09-2.35h0a8.617,8.617,0,0,0,.911-.959h-1.87a11.064,11.064,0,0,1-.671-.911h3.213a6.143,6.143,0,0,0,.527-.959H13a5.715,5.715,0,0,1-.384-.959H17.6a9.522,9.522,0,0,0,.48-2.877,12.378,12.378,0,0,0-.192-1.918H12.324a7.011,7.011,0,0,1,.24-.959h4.987a5.715,5.715,0,0,0-.384-.959h-4.22a9.51,9.51,0,0,1,.527-.959h3.213a4.56,4.56,0,0,0-.719-.959H14.194a8.174,8.174,0,0,1,.911-.911,8.849,8.849,0,0,0-6.09-2.35C9.015,100.8,9.015,100.8,8.967,100.8Z" transform="translate(0 -100.8)" fill="#ff5050"/>
  <path id="Path_10691" data-name="Path 10691" d="M0,111.367a9.056,9.056,0,0,0,9.063,9.063,9.169,9.169,0,0,0,6.09-2.35h0a8.616,8.616,0,0,0,.911-.959h-1.87a11.06,11.06,0,0,1-.671-.911h3.213a6.142,6.142,0,0,0,.527-.959H13a5.715,5.715,0,0,1-.384-.959H17.6a9.522,9.522,0,0,0,.48-2.877,12.378,12.378,0,0,0-.192-1.918H12.324a7.011,7.011,0,0,1,.24-.959h4.987a5.715,5.715,0,0,0-.384-.959h-4.22a9.511,9.511,0,0,1,.527-.959h3.213a4.561,4.561,0,0,0-.719-.959H14.194a8.174,8.174,0,0,1,.911-.911,8.849,8.849,0,0,0-6.09-2.35H8.967" transform="translate(0 -102.304)" fill="#e52836"/>
  <path id="Path_10692" data-name="Path 10692" d="M149.7,120.43a9.169,9.169,0,0,0,6.09-2.35h0a8.617,8.617,0,0,0,.911-.959h-1.87a11.056,11.056,0,0,1-.671-.911h3.213a6.14,6.14,0,0,0,.527-.959h-4.268a5.715,5.715,0,0,1-.384-.959h4.987a9.521,9.521,0,0,0,.48-2.877,12.377,12.377,0,0,0-.192-1.918h-5.563a7.01,7.01,0,0,1,.24-.959h4.987a5.715,5.715,0,0,0-.384-.959h-4.22a9.516,9.516,0,0,1,.527-.959h3.213a4.561,4.561,0,0,0-.719-.959h-1.774a8.174,8.174,0,0,1,.911-.911,8.849,8.849,0,0,0-6.09-2.35H149.6" transform="translate(-140.633 -102.304)" fill="#cb2026"/>
  <g id="Group_3184" data-name="Group 3184" transform="translate(0.863 6.713)">
    <path id="Path_10693" data-name="Path 10693" d="M182.991,224.22l.144-.815a2.077,2.077,0,0,1-.24.048c-.336,0-.384-.192-.336-.288l.288-1.678h.527l.144-.911h-.48l.1-.575h-.959s-.575,3.165-.575,3.549a.72.72,0,0,0,.767.815A1.472,1.472,0,0,0,182.991,224.22Z" transform="translate(-171.578 -219.568)" fill="#fff"/>
    <path id="Path_10694" data-name="Path 10694" d="M210.4,230.863a1.525,1.525,0,0,0,1.678,1.678,2.49,2.49,0,0,0,1.007-.144l.192-.911a2.875,2.875,0,0,1-1.007.24c-1.055,0-.863-.767-.863-.767h1.966a6.218,6.218,0,0,0,.144-.863,1.3,1.3,0,0,0-1.391-1.391C211.119,228.609,210.4,229.664,210.4,230.863Zm1.678-1.391c.527,0,.432.623.432.671h-1.055C211.455,230.1,211.551,229.472,212.078,229.472Z" transform="translate(-198.651 -227.746)" fill="#fff"/>
    <path id="Path_10695" data-name="Path 10695" d="M298.637,217.451l.192-1.055a2.357,2.357,0,0,1-.815.24c-.671,0-.959-.527-.959-1.1,0-1.151.575-1.774,1.247-1.774a1.6,1.6,0,0,1,.863.288l.144-1.007a3.371,3.371,0,0,0-1.1-.24c-1.1,0-2.206.959-2.206,2.781,0,1.2.575,2.014,1.726,2.014A4.3,4.3,0,0,0,298.637,217.451Z" transform="translate(-279.12 -212.8)" fill="#fff"/>
    <path id="Path_10696" data-name="Path 10696" d="M88.222,227.2a3.4,3.4,0,0,0-1.151.192l-.144.815a2.835,2.835,0,0,1,1.055-.192c.336,0,.623.048.623.336,0,.192-.048.24-.048.24h-.432c-.815,0-1.726.336-1.726,1.439,0,.863.575,1.055.911,1.055a1.441,1.441,0,0,0,1.007-.432l-.048.384h.863l.384-2.637A1.136,1.136,0,0,0,88.222,227.2Zm.192,2.158c0,.144-.1.911-.671.911a.374.374,0,0,1-.384-.384c0-.24.144-.575.863-.575A.756.756,0,0,0,88.414,229.358Z" transform="translate(-82.084 -226.337)" fill="#fff"/>
    <path id="Path_10697" data-name="Path 10697" d="M136.3,230.332a1.229,1.229,0,0,0,1.439-1.247c0-1.2-1.151-.959-1.151-1.439,0-.24.192-.336.527-.336.144,0,.671.048.671.048l.144-.863a3.643,3.643,0,0,0-.911-.1c-.719,0-1.439.288-1.439,1.247,0,1.1,1.2,1.007,1.2,1.439,0,.288-.336.336-.575.336a3.136,3.136,0,0,1-.863-.144l-.144.863C135.248,230.236,135.488,230.332,136.3,230.332Z" transform="translate(-127.959 -225.585)" fill="#fff"/>
    <path id="Path_10698" data-name="Path 10698" d="M429.933,214.4l-.192,1.295a1.33,1.33,0,0,0-.911-.48c-.863,0-1.63,1.055-1.63,2.3,0,.767.384,1.582,1.2,1.582a1.28,1.28,0,0,0,.911-.384l-.048.336h.959l.719-4.6Zm-.432,2.542c0,.527-.24,1.2-.767,1.2-.336,0-.528-.288-.528-.767,0-.767.336-1.247.767-1.247C429.31,216.126,429.5,216.366,429.5,216.942Z" transform="translate(-402.456 -214.304)" fill="#fff"/>
    <path id="Path_10699" data-name="Path 10699" d="M15.311,219l.575-3.453.1,3.453h.671l1.247-3.453L17.373,219H18.38l.767-4.6H17.565l-.959,2.829-.048-2.829H15.167L14.4,219Z" transform="translate(-14.4 -214.304)" fill="#fff"/>
    <path id="Path_10700" data-name="Path 10700" d="M261.055,232.54c.288-1.582.336-2.877,1.007-2.637a3.763,3.763,0,0,1,.336-1.1h-.192c-.432,0-.767.575-.767.575l.1-.527h-.911l-.623,3.74h1.055Z" transform="translate(-245.278 -227.841)" fill="#fff"/>
    <path id="Path_10701" data-name="Path 10701" d="M348.222,227.2a3.4,3.4,0,0,0-1.151.192l-.144.815a2.834,2.834,0,0,1,1.055-.192c.336,0,.623.048.623.336,0,.192-.048.24-.048.24h-.432c-.815,0-1.726.336-1.726,1.439,0,.863.575,1.055.911,1.055a1.441,1.441,0,0,0,1.007-.432l-.048.384h.863l.384-2.637A1.12,1.12,0,0,0,348.222,227.2Zm.24,2.158c0,.144-.1.911-.671.911a.374.374,0,0,1-.384-.384c0-.24.144-.575.863-.575C348.414,229.358,348.414,229.358,348.462,229.358Z" transform="translate(-326.499 -226.337)" fill="#fff"/>
    <path id="Path_10702" data-name="Path 10702" d="M395.455,232.54c.288-1.582.336-2.877,1.007-2.637a3.764,3.764,0,0,1,.336-1.1h-.192c-.432,0-.767.575-.767.575l.1-.527h-.911l-.623,3.74h1.055Z" transform="translate(-371.622 -227.841)" fill="#fff"/>
  </g>
  <g id="Group_3185" data-name="Group 3185" transform="translate(0.863 6.713)">
    <path id="Path_10703" data-name="Path 10703" d="M180,223.549a.72.72,0,0,0,.767.815,1.825,1.825,0,0,0,.719-.144l.144-.815a2.077,2.077,0,0,1-.24.048c-.336,0-.384-.192-.336-.288l.288-1.678h.527l.144-.911h-.48l.1-.575" transform="translate(-170.074 -219.568)" fill="#dce5e5"/>
    <path id="Path_10704" data-name="Path 10704" d="M218.4,230.863c0,1.343.432,1.678,1.2,1.678a2.49,2.49,0,0,0,1.007-.144l.192-.911a2.875,2.875,0,0,1-1.007.24c-1.055,0-.863-.767-.863-.767h1.966a6.217,6.217,0,0,0,.144-.863,1.3,1.3,0,0,0-1.391-1.391C218.64,228.609,218.4,229.664,218.4,230.863Zm1.2-1.391c.527,0,.623.623.623.671h-1.247C218.975,230.1,219.071,229.472,219.6,229.472Z" transform="translate(-206.172 -227.746)" fill="#dce5e5"/>
    <path id="Path_10705" data-name="Path 10705" d="M306.158,217.451l.192-1.055a2.357,2.357,0,0,1-.815.24c-.671,0-.959-.527-.959-1.1,0-1.151.575-1.774,1.247-1.774a1.6,1.6,0,0,1,.863.288l.144-1.007a3.371,3.371,0,0,0-1.1-.24c-1.1,0-1.726.959-1.726,2.781,0,1.2.1,2.014,1.247,2.014A4.3,4.3,0,0,0,306.158,217.451Z" transform="translate(-286.641 -212.8)" fill="#dce5e5"/>
    <path id="Path_10706" data-name="Path 10706" d="M86.927,229.759a2.835,2.835,0,0,1,1.055-.192c.336,0,.623.048.623.336,0,.192-.048.24-.048.24h-.432c-.815,0-1.726.336-1.726,1.439,0,.863.575,1.055.911,1.055a1.441,1.441,0,0,0,1.007-.432l-.048.384h.863l.384-2.637c0-1.1-.959-1.151-1.343-1.151m.719,2.062a1.57,1.57,0,0,1-1.151.911.374.374,0,0,1-.384-.384c0-.24.144-.575.863-.575A3.916,3.916,0,0,0,88.894,230.862Z" transform="translate(-82.084 -227.841)" fill="#dce5e5"/>
    <path id="Path_10707" data-name="Path 10707" d="M136,230.236a4.059,4.059,0,0,0,1.1.1,1.229,1.229,0,0,0,1.439-1.247c0-1.2-1.151-.959-1.151-1.439,0-.24.192-.336.527-.336.144,0,.671.048.671.048l.144-.863a3.643,3.643,0,0,0-.911-.1c-.719,0-.959.288-.959,1.247,0,1.1.719,1.007.719,1.439,0,.288-.336.336-.575.336" transform="translate(-128.711 -225.585)" fill="#dce5e5"/>
    <path id="Path_10708" data-name="Path 10708" d="M437.207,216.447a1.33,1.33,0,0,0-.911-.48c-.863,0-1.151,1.055-1.151,2.3,0,.767-.1,1.582.719,1.582a1.28,1.28,0,0,0,.911-.384l-.048.336h.959l.719-4.6m-1.247,2.494c0,.527-.432,1.2-.959,1.2-.336,0-.527-.288-.527-.767,0-.767.336-1.247.767-1.247A.733.733,0,0,1,437.159,217.694Z" transform="translate(-409.922 -215.056)" fill="#dce5e5"/>
    <path id="Path_10709" data-name="Path 10709" d="M15.311,219l.575-3.453.1,3.453h.671l1.247-3.453L17.373,219H18.38l.767-4.6h-1.2l-1.343,2.829-.048-2.829H16.03L14.4,219Z" transform="translate(-14.4 -214.304)" fill="#dce5e5"/>
    <path id="Path_10710" data-name="Path 10710" d="M260.8,232.54h1.007c.288-1.582.336-2.877,1.007-2.637a3.764,3.764,0,0,1,.336-1.1h-.192c-.432,0-.767.575-.767.575l.1-.527" transform="translate(-246.03 -227.841)" fill="#dce5e5"/>
    <path id="Path_10711" data-name="Path 10711" d="M346.927,229.759a2.835,2.835,0,0,1,1.055-.192c.336,0,.623.048.623.336,0,.192-.048.24-.048.24h-.432c-.815,0-1.726.336-1.726,1.439,0,.863.575,1.055.911,1.055a1.441,1.441,0,0,0,1.007-.432l-.048.384h.863l.384-2.637c0-1.1-.959-1.151-1.343-1.151m.719,2.062a1.57,1.57,0,0,1-1.151.911.374.374,0,0,1-.384-.384c0-.24.144-.575.863-.575A4.217,4.217,0,0,0,348.894,230.862Z" transform="translate(-326.499 -227.841)" fill="#dce5e5"/>
    <path id="Path_10712" data-name="Path 10712" d="M395.2,232.54h1.007c.288-1.582.336-2.877,1.007-2.637a3.763,3.763,0,0,1,.336-1.1h-.192c-.432,0-.767.575-.767.575l.1-.527" transform="translate(-372.374 -227.841)" fill="#dce5e5"/>
  </g>
</svg>
