<svg width="17" height="17" viewBox="0 0 17 17" fill="none" xmlns="http://www.w3.org/2000/svg">
<g id="iconamoon:discount-light">
<g id="Group">
<path id="Vector" d="M7.50762 3.21805C7.63268 3.07838 7.78579 2.96666 7.95695 2.89017C8.12811 2.81368 8.31348 2.77414 8.50095 2.77414C8.68843 2.77414 8.8738 2.81368 9.04496 2.89017C9.21612 2.96666 9.36923 3.07838 9.49429 3.21805L9.96095 3.73939C10.0943 3.88838 10.2595 4.00547 10.4443 4.08198C10.629 4.15849 10.8286 4.19247 11.0283 4.18139L11.7283 4.14272C11.9155 4.1324 12.1028 4.16169 12.278 4.22867C12.4531 4.29565 12.6121 4.39882 12.7447 4.53145C12.8773 4.66407 12.9804 4.82316 13.0473 4.99834C13.1142 5.17351 13.1434 5.36083 13.133 5.54805L13.0943 6.24739C13.0833 6.44694 13.1173 6.64641 13.1938 6.83105C13.2703 7.01568 13.3874 7.18075 13.5363 7.31405L14.0576 7.78072C14.1974 7.90578 14.3092 8.05893 14.3858 8.23015C14.4623 8.40138 14.5019 8.58683 14.5019 8.77439C14.5019 8.96195 14.4623 9.1474 14.3858 9.31862C14.3092 9.48985 14.1974 9.64299 14.0576 9.76805L13.5363 10.2347C13.3873 10.3681 13.2702 10.5333 13.1937 10.718C13.1172 10.9028 13.0832 11.1024 13.0943 11.3021L13.133 12.0021C13.1433 12.1893 13.114 12.3766 13.047 12.5517C12.98 12.7269 12.8769 12.8859 12.7442 13.0185C12.6116 13.151 12.4525 13.2541 12.2773 13.321C12.1022 13.3879 11.9148 13.4171 11.7276 13.4067L11.0283 13.3681C10.8287 13.3571 10.6293 13.3911 10.4446 13.4676C10.26 13.5441 10.0949 13.6611 9.96162 13.8101L9.49495 14.3314C9.36989 14.4712 9.21675 14.583 9.04552 14.6595C8.8743 14.7361 8.68885 14.7757 8.50129 14.7757C8.31373 14.7757 8.12828 14.7361 7.95705 14.6595C7.78583 14.583 7.63268 14.4712 7.50762 14.3314L7.04095 13.8101C6.90758 13.6611 6.7424 13.544 6.55764 13.4675C6.37288 13.3909 6.17328 13.357 5.97362 13.3681L5.27362 13.4067C5.08639 13.417 4.89909 13.3878 4.72395 13.3208C4.5488 13.2538 4.38976 13.1506 4.2572 13.018C4.12464 12.8854 4.02154 12.7263 3.95464 12.5511C3.88774 12.3759 3.85854 12.1886 3.86895 12.0014L3.90762 11.3021C3.9186 11.1025 3.88458 10.903 3.80807 10.7184C3.73156 10.5338 3.61453 10.3687 3.46562 10.2354L2.94429 9.76872C2.80451 9.64366 2.69269 9.49051 2.61613 9.31929C2.53957 9.14806 2.5 8.96261 2.5 8.77505C2.5 8.58749 2.53957 8.40204 2.61613 8.23082C2.69269 8.0596 2.80451 7.90645 2.94429 7.78139L3.46562 7.31472C3.61462 7.18135 3.73171 7.01616 3.80822 6.83141C3.88473 6.64665 3.9187 6.44705 3.90762 6.24739L3.86895 5.54739C3.85873 5.36021 3.88809 5.17298 3.95511 4.99792C4.02214 4.82286 4.12533 4.6639 4.25794 4.53141C4.39055 4.39892 4.54961 4.29589 4.72474 4.22903C4.89987 4.16217 5.08712 4.13299 5.27429 4.14339L5.97362 4.18205C6.17317 4.19303 6.37265 4.15901 6.55728 4.0825C6.74191 4.006 6.90698 3.88896 7.04029 3.74005L7.50695 3.21872L7.50762 3.21805Z" stroke="#A8A3A3" stroke-opacity="0.6" stroke-width="1.5"/>
<path id="Vector_2" d="M6.83398 7.108H6.84065V7.11467H6.83398V7.108ZM10.1673 10.4413H10.174V10.448H10.1673V10.4413Z" stroke="#A8A3A3" stroke-opacity="0.6" stroke-width="2.25" stroke-linejoin="round"/>
<path id="Vector_3" d="M10.5 6.77475L6.5 10.7747" stroke="#A8A3A3" stroke-opacity="0.6" stroke-width="1.5" stroke-linecap="round" stroke-linejoin="round"/>
</g>
</g>
</svg>
