<svg width="22" height="22" viewBox="0 0 22 22" fill="none" xmlns="http://www.w3.org/2000/svg">
<path d="M2.08263 1.50988C1.90902 1.50988 1.74252 1.57885 1.61976 1.70161C1.497 1.82437 1.42803 1.99087 1.42803 2.16448V6.09207C1.42803 6.26568 1.35907 6.43218 1.2363 6.55494C1.11354 6.6777 0.947044 6.74667 0.773434 6.74667C0.599823 6.74667 0.433324 6.6777 0.310563 6.55494C0.187802 6.43218 0.118835 6.26568 0.118835 6.09207V2.16448C0.118835 1.64365 0.325735 1.14415 0.694018 0.775866C1.0623 0.407583 1.5618 0.200684 2.08263 0.200684L6.01022 0.200684C6.18383 0.200684 6.35033 0.26965 6.47309 0.392411C6.59585 0.515172 6.66482 0.681672 6.66482 0.855282C6.66482 1.02889 6.59585 1.19539 6.47309 1.31815C6.35033 1.44091 6.18383 1.50988 6.01022 1.50988H2.08263ZM14.52 0.855282C14.52 0.681672 14.589 0.515172 14.7117 0.392411C14.8345 0.26965 15.001 0.200684 15.1746 0.200684L19.1022 0.200684C19.623 0.200684 20.1225 0.407583 20.4908 0.775866C20.8591 1.14415 21.066 1.64365 21.066 2.16448V6.09207C21.066 6.26568 20.997 6.43218 20.8743 6.55494C20.7515 6.6777 20.585 6.74667 20.4114 6.74667C20.2378 6.74667 20.0713 6.6777 19.9485 6.55494C19.8257 6.43218 19.7568 6.26568 19.7568 6.09207V2.16448C19.7568 1.99087 19.6878 1.82437 19.5651 1.70161C19.4423 1.57885 19.2758 1.50988 19.1022 1.50988H15.1746C15.001 1.50988 14.8345 1.44091 14.7117 1.31815C14.589 1.19539 14.52 1.02889 14.52 0.855282ZM0.773434 14.6018C0.947044 14.6018 1.11354 14.6708 1.2363 14.7936C1.35907 14.9163 1.42803 15.0828 1.42803 15.2564V19.184C1.42803 19.3576 1.497 19.5241 1.61976 19.6469C1.74252 19.7697 1.90902 19.8386 2.08263 19.8386H6.01022C6.18383 19.8386 6.35033 19.9076 6.47309 20.0304C6.59585 20.1531 6.66482 20.3196 6.66482 20.4932C6.66482 20.6668 6.59585 20.8333 6.47309 20.9561C6.35033 21.0789 6.18383 21.1478 6.01022 21.1478H2.08263C1.5618 21.1478 1.0623 20.9409 0.694018 20.5726C0.325735 20.2044 0.118835 19.7049 0.118835 19.184L0.118835 15.2564C0.118835 15.0828 0.187802 14.9163 0.310563 14.7936C0.433324 14.6708 0.599823 14.6018 0.773434 14.6018ZM20.4114 14.6018C20.585 14.6018 20.7515 14.6708 20.8743 14.7936C20.997 14.9163 21.066 15.0828 21.066 15.2564V19.184C21.066 19.7049 20.8591 20.2044 20.4908 20.5726C20.1225 20.9409 19.623 21.1478 19.1022 21.1478H15.1746C15.001 21.1478 14.8345 21.0789 14.7117 20.9561C14.589 20.8333 14.52 20.6668 14.52 20.4932C14.52 20.3196 14.589 20.1531 14.7117 20.0304C14.8345 19.9076 15.001 19.8386 15.1746 19.8386H19.1022C19.2758 19.8386 19.4423 19.7697 19.5651 19.6469C19.6878 19.5241 19.7568 19.3576 19.7568 19.184V15.2564C19.7568 15.0828 19.8257 14.9163 19.9485 14.7936C20.0713 14.6708 20.2378 14.6018 20.4114 14.6018ZM4.04642 6.09207C4.04642 5.91846 4.11539 5.75196 4.23815 5.6292C4.36091 5.50644 4.52741 5.43747 4.70102 5.43747C4.87463 5.43747 5.04113 5.50644 5.16389 5.6292C5.28665 5.75196 5.35562 5.91846 5.35562 6.09207V15.2564C5.35562 15.4301 5.28665 15.5966 5.16389 15.7193C5.04113 15.8421 4.87463 15.911 4.70102 15.911C4.52741 15.911 4.36091 15.8421 4.23815 15.7193C4.11539 15.5966 4.04642 15.4301 4.04642 15.2564V6.09207ZM6.66482 6.09207C6.66482 5.91846 6.73378 5.75196 6.85655 5.6292C6.97931 5.50644 7.14581 5.43747 7.31942 5.43747C7.49303 5.43747 7.65953 5.50644 7.78229 5.6292C7.90505 5.75196 7.97401 5.91846 7.97401 6.09207V15.2564C7.97401 15.4301 7.90505 15.5966 7.78229 15.7193C7.65953 15.8421 7.49303 15.911 7.31942 15.911C7.14581 15.911 6.97931 15.8421 6.85655 15.7193C6.73378 15.5966 6.66482 15.4301 6.66482 15.2564V6.09207ZM9.28321 6.09207C9.28321 5.91846 9.35218 5.75196 9.47494 5.6292C9.5977 5.50644 9.7642 5.43747 9.93781 5.43747C10.1114 5.43747 10.2779 5.50644 10.4007 5.6292C10.5234 5.75196 10.5924 5.91846 10.5924 6.09207V15.2564C10.5924 15.4301 10.5234 15.5966 10.4007 15.7193C10.2779 15.8421 10.1114 15.911 9.93781 15.911C9.7642 15.911 9.5977 15.8421 9.47494 15.7193C9.35218 15.5966 9.28321 15.4301 9.28321 15.2564V6.09207ZM11.9016 6.09207C11.9016 5.91846 11.9706 5.75196 12.0933 5.6292C12.2161 5.50644 12.3826 5.43747 12.5562 5.43747H13.8654C14.039 5.43747 14.2055 5.50644 14.3283 5.6292C14.451 5.75196 14.52 5.91846 14.52 6.09207V15.2564C14.52 15.4301 14.451 15.5966 14.3283 15.7193C14.2055 15.8421 14.039 15.911 13.8654 15.911H12.5562C12.3826 15.911 12.2161 15.8421 12.0933 15.7193C11.9706 15.5966 11.9016 15.4301 11.9016 15.2564V6.09207ZM15.8292 6.09207C15.8292 5.91846 15.8982 5.75196 16.0209 5.6292C16.1437 5.50644 16.3102 5.43747 16.4838 5.43747C16.6574 5.43747 16.8239 5.50644 16.9467 5.6292C17.0694 5.75196 17.1384 5.91846 17.1384 6.09207V15.2564C17.1384 15.4301 17.0694 15.5966 16.9467 15.7193C16.8239 15.8421 16.6574 15.911 16.4838 15.911C16.3102 15.911 16.1437 15.8421 16.0209 15.7193C15.8982 15.5966 15.8292 15.4301 15.8292 15.2564V6.09207Z" fill="#2B3050"/>
</svg>
