<svg id="programming-code-signs" xmlns="http://www.w3.org/2000/svg" width="14.972" height="11.391" viewBox="0 0 14.972 11.391">
  <g id="Group_5" data-name="Group 5" transform="translate(0)">
    <path id="Path_4" data-name="Path 4" d="M66.348,25.062l-3.821-3.821a.326.326,0,0,0-.448,0l-.828.828a.317.317,0,0,0,0,.448l2.769,2.769L61.25,28.055a.317.317,0,0,0,0,.448l.828.828a.316.316,0,0,0,.448,0l3.821-3.821A.317.317,0,0,0,66.348,25.062Z" transform="translate(-51.468 -19.591)" fill="#fff"/>
    <path id="Path_5" data-name="Path 5" d="M5.189,28.037,2.421,25.268,5.19,22.5a.317.317,0,0,0,0-.448l-.828-.828a.317.317,0,0,0-.448,0L.092,25.044a.317.317,0,0,0,0,.448l3.821,3.821a.316.316,0,0,0,.448,0l.828-.828A.316.316,0,0,0,5.189,28.037Z" transform="translate(0.001 -19.573)" fill="#fff"/>
    <path id="Path_6" data-name="Path 6" d="M37.678,11.668a.317.317,0,0,0-.189-.152l-.672-.2a.317.317,0,0,0-.394.214L33.306,22.09a.317.317,0,0,0,.214.394l.672.2a.316.316,0,0,0,.394-.214L37.7,11.909A.316.316,0,0,0,37.678,11.668Z" transform="translate(-28.018 -11.304)" fill="#fff"/>
  </g>
</svg>
