<svg id="Layer_1" enable-background="new 0 0 512 512" height="512" viewBox="0 0 512 512" width="512" xmlns="http://www.w3.org/2000/svg"><path clip-rule="evenodd" d="m178.161 266.658c1.024 7.322 2.146 14.346 3.361 21.06 2.003 11.068 4.423 22.129 7.228 33.089 1.977 7.783-2.546 15.691-10.156 17.99-3.884 1.489-7.427 2.734-10.649 3.752-35.621 11.263-70.35 10.953-96.335 7.402-29.741-4.064-51.465-16.869-52.931-20.642-.501-1.295-.808-2.617-.937-3.935l-.005.001c-2.026-20.44-1.058-41.12 2.503-61.438 3.686-21.033 10.139-41.784 18.913-61.575 1.677-3.81 4.752-6.569 8.358-7.942l-.002-.005c15.823-6.024 32.938-11.388 51.133-15.993 17.803-4.507 36.621-8.274 56.254-11.21 16.047-2.4 32.697-4.247 49.84-5.49 16.883-1.224 34.011-1.86 51.264-1.86 17.254 0 34.381.636 51.265 1.86 17.143 1.243 33.793 3.09 49.84 5.49 19.633 2.936 38.451 6.704 56.254 11.21 18.195 4.606 35.309 9.969 51.133 15.993 4 1.523 6.966 4.578 8.486 8.242 8.707 19.702 15.115 40.352 18.782 61.28 3.561 20.318 4.529 40.998 2.503 61.438-.12 1.221-.385 2.392-.775 3.5l.016.006-.007.019c-4.2 11.908-42.114 19.549-53.101 21.05-25.982 3.55-60.708 3.862-96.327-7.397-3.512-1.11-7.404-2.488-11.702-4.158-7.116-2.751-10.917-10.365-9.075-17.578l-.04-.01c2.805-10.96 5.226-22.021 7.229-33.089 1.215-6.714 2.337-13.738 3.361-21.06-24.956-2.804-51.331-4.206-77.839-4.206s-52.886 1.402-77.842 4.206z" fill-rule="evenodd"/></svg>