<svg xmlns="http://www.w3.org/2000/svg" width="15.998" height="16" viewBox="0 0 15.998 16">
  <g id="link" transform="translate(-0.039 0)">
    <g id="Group_2" data-name="Group 2" transform="translate(0.039 5.144)">
      <g id="Group_1" data-name="Group 1" transform="translate(0)">
        <path id="Path_2" data-name="Path 2" d="M9.8,165.707a3.629,3.629,0,0,0-.627-.5,3.733,3.733,0,0,0-4.653.5L1.13,169.1a3.733,3.733,0,0,0,5.276,5.282l2.8-2.8a.267.267,0,0,0-.189-.456H8.91A4.487,4.487,0,0,1,7.2,170.8a.267.267,0,0,0-.291.059L4.9,172.871a1.6,1.6,0,0,1-2.264-2.264l3.4-3.4a1.6,1.6,0,0,1,2.261,0,1.093,1.093,0,0,0,1.5,0,1.056,1.056,0,0,0,0-1.5Z" transform="translate(-0.039 -164.614)" fill="#fff"/>
      </g>
    </g>
    <g id="Group_4" data-name="Group 4" transform="translate(5.959 0)">
      <g id="Group_3" data-name="Group 3" transform="translate(0 0)">
        <path id="Path_3" data-name="Path 3" d="M198.486,1.094a3.733,3.733,0,0,0-5.279,0l-2.8,2.794a.268.268,0,0,0,.195.456h.1a4.479,4.479,0,0,1,1.7.333.267.267,0,0,0,.291-.059l2.008-2a1.6,1.6,0,0,1,2.264,2.264l-2.5,2.5-.021.024-.875.869a1.6,1.6,0,0,1-2.261,0,1.093,1.093,0,0,0-1.5,0,1.063,1.063,0,0,0,0,1.5,3.7,3.7,0,0,0,1.066.747c.056.027.112.048.168.072s.115.043.171.064.115.04.171.056l.157.043c.107.027.213.048.323.067a3.711,3.711,0,0,0,.4.037h.2l.16-.019c.059,0,.12-.016.189-.016h.091l.184-.027.085-.016.155-.032h.029a3.732,3.732,0,0,0,1.73-.981l3.394-3.394A3.733,3.733,0,0,0,198.486,1.094Z" transform="translate(-189.502 0)" fill="#fff"/>
      </g>
    </g>
  </g>
</svg>
