<svg id="calendar_12_" data-name="calendar (12)" xmlns="http://www.w3.org/2000/svg" width="18" height="18" viewBox="0 0 18 18">
  <g id="Group_12" data-name="Group 12">
    <g id="Group_11" data-name="Group 11">
      <circle id="Ellipse_1" data-name="Ellipse 1" cx="0.703" cy="0.703" r="0.703" transform="translate(12.867 6.68)" fill="#62b5b9"/>
      <path id="Path_16" data-name="Path 16" d="M15.188,1.406h-.914V.7a.7.7,0,0,0-1.406,0v.7h-3.2V.7A.7.7,0,0,0,8.262.7v.7H5.1V.7A.7.7,0,0,0,3.691.7v.7H2.813A2.816,2.816,0,0,0,0,4.219V15.188A2.816,2.816,0,0,0,2.813,18H8.191a.7.7,0,0,0,0-1.406H2.813a1.408,1.408,0,0,1-1.406-1.406V4.219A1.408,1.408,0,0,1,2.813,2.813h.879v.7a.7.7,0,0,0,1.406,0v-.7H8.262v.7a.7.7,0,0,0,1.406,0v-.7h3.2v.7a.7.7,0,0,0,1.406,0v-.7h.914a1.408,1.408,0,0,1,1.406,1.406V8.227a.7.7,0,0,0,1.406,0V4.219A2.816,2.816,0,0,0,15.188,1.406Z" fill="#62b5b9"/>
      <path id="Path_17" data-name="Path 17" d="M274.254,270a4.254,4.254,0,1,0,4.254,4.254A4.259,4.259,0,0,0,274.254,270Zm0,7.1a2.848,2.848,0,1,1,2.848-2.848A2.851,2.851,0,0,1,274.254,277.1Z" transform="translate(-260.508 -260.508)" fill="#62b5b9"/>
      <path id="Path_18" data-name="Path 18" d="M372.723,331.441h-.316V330.7a.7.7,0,0,0-1.406,0v1.441a.7.7,0,0,0,.7.7h1.02a.7.7,0,0,0,0-1.406Z" transform="translate(-357.957 -318.398)" fill="#62b5b9"/>
      <circle id="Ellipse_2" data-name="Ellipse 2" cx="0.703" cy="0.703" r="0.703" transform="translate(9.809 6.68)" fill="#62b5b9"/>
      <circle id="Ellipse_3" data-name="Ellipse 3" cx="0.703" cy="0.703" r="0.703" transform="translate(6.75 9.738)" fill="#62b5b9"/>
      <circle id="Ellipse_4" data-name="Ellipse 4" cx="0.703" cy="0.703" r="0.703" transform="translate(3.691 6.68)" fill="#62b5b9"/>
      <circle id="Ellipse_5" data-name="Ellipse 5" cx="0.703" cy="0.703" r="0.703" transform="translate(3.691 9.738)" fill="#62b5b9"/>
      <circle id="Ellipse_6" data-name="Ellipse 6" cx="0.703" cy="0.703" r="0.703" transform="translate(3.691 12.797)" fill="#62b5b9"/>
      <circle id="Ellipse_7" data-name="Ellipse 7" cx="0.703" cy="0.703" r="0.703" transform="translate(6.75 12.797)" fill="#62b5b9"/>
      <circle id="Ellipse_8" data-name="Ellipse 8" cx="0.703" cy="0.703" r="0.703" transform="translate(6.75 6.68)" fill="#62b5b9"/>
    </g>
  </g>
</svg>
