<svg xmlns="http://www.w3.org/2000/svg" width="16" height="16" viewBox="0 0 16 16">
  <g id="interview" transform="translate(0)">
    <path id="Path_19" data-name="Path 19" d="M14.649,165.659a2.187,2.187,0,1,0-2.643.46,2.336,2.336,0,0,0-.693,1.662v.469H9.906a1.406,1.406,0,0,0-1.326,1.875H7.419a1.406,1.406,0,0,0-1.326-1.875H4.687v-.469a2.336,2.336,0,0,0-.693-1.662,2.188,2.188,0,1,0-2.643-.46A2.346,2.346,0,0,0,0,167.781v4.688a.469.469,0,0,0,.469.469H15.531a.469.469,0,0,0,.469-.469v-4.687a2.346,2.346,0,0,0-1.351-2.123Zm-2.868-1.471a1.25,1.25,0,1,1,1.25,1.25A1.251,1.251,0,0,1,11.781,164.187Zm-8.813-1.25a1.25,1.25,0,1,1-1.25,1.25A1.251,1.251,0,0,1,2.969,162.937Zm-.625,5.313a.469.469,0,0,0-.469.469v.625A1.721,1.721,0,0,0,3.125,171v1H.937v-4.219a1.406,1.406,0,0,1,2.813,0v.938a.469.469,0,0,0,.469.469H6.094a.469.469,0,1,1,0,.938h-2.5a.782.782,0,0,1-.781-.781v-.625A.469.469,0,0,0,2.344,168.25ZM11.937,172H4.062v-.937h7.875Zm3.125,0H12.875v-1a1.721,1.721,0,0,0,1.25-1.653v-.625a.469.469,0,0,0-.937,0v.625a.782.782,0,0,1-.781.781h-2.5a.469.469,0,0,1,0-.937h1.875a.469.469,0,0,0,.469-.469v-.937a1.406,1.406,0,0,1,2.813,0Z" transform="translate(0 -156.937)" fill="#62b5b9"/>
    <path id="Path_20" data-name="Path 20" d="M142.094,4.688h.156v.781a.469.469,0,0,0,.762.366l1.434-1.147h.3l1.434,1.147a.469.469,0,0,0,.762-.366V4.688h.156a1.1,1.1,0,0,0,1.094-1.094v-2.5A1.1,1.1,0,0,0,147.094,0h-5A1.1,1.1,0,0,0,141,1.094v2.5A1.1,1.1,0,0,0,142.094,4.688Zm-.156-3.594a.156.156,0,0,1,.156-.156h5a.156.156,0,0,1,.156.156v2.5a.156.156,0,0,1-.156.156h-.625a.469.469,0,0,0-.469.469v.275l-.8-.641a.469.469,0,0,0-.293-.1h-.625a.469.469,0,0,0-.293.1l-.8.641V4.219a.469.469,0,0,0-.469-.469h-.625a.156.156,0,0,1-.156-.156Z" transform="translate(-136.594)" fill="#62b5b9"/>
    <path id="Path_21" data-name="Path 21" d="M201.469,60.938h2.5a.469.469,0,0,0,0-.937h-2.5a.469.469,0,0,0,0,.938Z" transform="translate(-194.719 -58.125)" fill="#62b5b9"/>
  </g>
</svg>
