<svg width="41" height="41" viewBox="0 0 41 41" fill="none" xmlns="http://www.w3.org/2000/svg">
<g clip-path="url(#clip0_645_6895)">
<path d="M6.3802 10.1084C8.74713 10.1084 10.6659 8.18961 10.6659 5.82267C10.6659 3.45574 8.74713 1.53696 6.3802 1.53696C4.01326 1.53696 2.09448 3.45574 2.09448 5.82267C2.09448 8.18961 4.01326 10.1084 6.3802 10.1084Z" stroke="#00979E" stroke-width="2.85714" stroke-linecap="round" stroke-linejoin="round"/>
<path d="M10.666 5.82266H39.2374" stroke="#00979E" stroke-width="2.85714" stroke-linecap="round" stroke-linejoin="round"/>
<path d="M20.6658 24.3941C23.0328 24.3941 24.9516 22.4753 24.9516 20.1084C24.9516 17.7414 23.0328 15.8227 20.6658 15.8227C18.2989 15.8227 16.3801 17.7414 16.3801 20.1084C16.3801 22.4753 18.2989 24.3941 20.6658 24.3941Z" stroke="#00979E" stroke-width="2.85714" stroke-linecap="round" stroke-linejoin="round"/>
<path d="M2.09448 20.1084H16.3802M24.9516 20.1084H39.2373" stroke="#00979E" stroke-width="2.85714" stroke-linecap="round" stroke-linejoin="round"/>
<path d="M34.9517 38.6798C37.3187 38.6798 39.2374 36.761 39.2374 34.3941C39.2374 32.0272 37.3187 30.1084 34.9517 30.1084C32.5848 30.1084 30.666 32.0272 30.666 34.3941C30.666 36.761 32.5848 38.6798 34.9517 38.6798Z" stroke="#00979E" stroke-width="2.85714" stroke-linecap="round" stroke-linejoin="round"/>
<path d="M30.6659 34.3941H2.09448" stroke="#00979E" stroke-width="2.85714" stroke-linecap="round" stroke-linejoin="round"/>
</g>
<defs>
<clipPath id="clip0_645_6895">
<rect width="40" height="40" fill="white" transform="translate(0.666016 0.108398)"/>
</clipPath>
</defs>
</svg>
