<svg id="_34-Add-image" data-name="34-Add-image" xmlns="http://www.w3.org/2000/svg" width="28" height="31.705" viewBox="0 0 28 31.705">
  <path id="Path_1535" data-name="Path 1535" d="M29,24.529H26v-3.4a1.008,1.008,0,1,0-2,0v3.4H21a1.141,1.141,0,0,0,0,2.265h3v3.4a1.008,1.008,0,1,0,2,0v-3.4h3a1.141,1.141,0,0,0,0-2.265Z" transform="translate(-2 0.382)" fill="#fff"/>
  <path id="Path_1536" data-name="Path 1536" d="M17,26.911H5a1.072,1.072,0,0,1-1-1.132V5.4A1.072,1.072,0,0,1,5,4.265H23A1.072,1.072,0,0,1,24,5.4V18.985a1.008,1.008,0,1,0,2,0V5.4A3.217,3.217,0,0,0,23,2H5A3.217,3.217,0,0,0,2,5.4V25.779a3.217,3.217,0,0,0,3,3.4H17a1.141,1.141,0,0,0,0-2.265Z" transform="translate(-2 -2)" fill="#fff"/>
  <ellipse id="Ellipse_25" data-name="Ellipse 25" cx="2.5" cy="2.831" rx="2.5" ry="2.831" transform="translate(6.5 4.529)" fill="#fff"/>
  <path id="Path_1537" data-name="Path 1537" d="M7.29,14.726,6,16.2v7.258H22V16.2l-4.29-4.869a.92.92,0,0,0-1.42,0l-5.29,6-2.29-2.6a.92.92,0,0,0-1.42,0Z" transform="translate(-2 -0.81)" fill="#fff"/>
</svg>
