<svg id="Group_48" data-name="Group 48" xmlns="http://www.w3.org/2000/svg" xmlns:xlink="http://www.w3.org/1999/xlink" width="69.508" height="20" viewBox="0 0 69.508 20">
  <defs>
    <linearGradient id="linear-gradient" y1="0.5" x2="1" y2="0.5" gradientUnits="objectBoundingBox">
      <stop offset="0" stop-color="#fdb913"/>
      <stop offset="1" stop-color="#df5326"/>
    </linearGradient>
    <linearGradient id="linear-gradient-2" x1="0" y1="0.5" x2="1" y2="0.5" xlink:href="#linear-gradient"/>
    <linearGradient id="linear-gradient-3" x1="-0.199" y1="0.345" x2="1.024" y2="0.596" xlink:href="#linear-gradient"/>
    <linearGradient id="linear-gradient-4" x1="0.018" y1="0.974" x2="1.047" y2="0.108" gradientUnits="objectBoundingBox">
      <stop offset="0" stop-color="#df5326"/>
      <stop offset="1" stop-color="#fdb913"/>
    </linearGradient>
    <linearGradient id="linear-gradient-5" x1="-10.833" y1="41.42" x2="-9.833" y2="41.42" xlink:href="#linear-gradient"/>
    <linearGradient id="linear-gradient-6" x1="-8.921" y1="21.082" x2="-8.194" y2="21.082" xlink:href="#linear-gradient"/>
    <linearGradient id="linear-gradient-7" x1="-11.585" y1="29.107" x2="-10.809" y2="29.107" xlink:href="#linear-gradient"/>
  </defs>
  <path id="Path_244" data-name="Path 244" d="M704.929,55.236h2.691l-.723-9.945h-1.246Z" transform="translate(-675.641 -35.548)"/>
  <path id="Path_245" data-name="Path 245" d="M712.7,45.291h-2.762l.723,9.945h1.317Z" transform="translate(-677.979 -35.548)"/>
  <path id="Path_246" data-name="Path 246" d="M710.474,32.016h-.027a2.866,2.866,0,1,1-.71,5.648l.041.548a3.137,3.137,0,1,0,.7-6.2Z" transform="translate(-677.885 -29.349)"/>
  <path id="Path_247" data-name="Path 247" d="M705.443,35.519a2.817,2.817,0,0,1,.969-2.21,3.136,3.136,0,0,0,.544,5.247l-.043-.575A2.713,2.713,0,0,1,705.443,35.519Z" transform="translate(-675.784 -29.953)"/>
  <path id="Path_248" data-name="Path 248" d="M707.1,37.382a2.712,2.712,0,0,1-1.48-2.467,2.783,2.783,0,0,1,1.116-2.323Zm1.4-5.366a2.858,2.858,0,0,0-1.1.217l.4,5.43a2.866,2.866,0,1,0,.7-5.647Z" transform="translate(-675.965 -29.349)" fill="url(#linear-gradient)"/>
  <path id="Path_249" data-name="Path 249" d="M658.083,55.574c-.612.116-2.234.13-2.821-.525h0a3.4,3.4,0,0,1-.764-1.289s-1.1-3.387-1.566-4.813a3.789,3.789,0,0,1-1.881-.18,1.235,1.235,0,0,1-.525-1.585l.407-.818a1.7,1.7,0,0,1,.2-.326c-.248.047-.437.19-.634.587l-.407.819a1.235,1.235,0,0,0,.525,1.585,3.788,3.788,0,0,0,1.88.179c.462,1.425,1.567,4.814,1.567,4.814a3.4,3.4,0,0,0,.764,1.289h0c.586.654,2.209.641,2.821.525a3.079,3.079,0,0,0,1.448-.544A3.785,3.785,0,0,1,658.083,55.574Z" transform="translate(-649.986 -35.896)"/>
  <path id="Path_250" data-name="Path 250" d="M663.621,45.615c.122-.291.246-.591.377-.9.22-.52,3.077-8.909,3.6-10.312a2.375,2.375,0,0,1,1.148-1.344,3.39,3.39,0,0,0-1.578,1.606c-.518,1.4-3.375,9.792-3.595,10.312l-.087.209Z" transform="translate(-656.287 -29.835)"/>
  <path id="Path_251" data-name="Path 251" d="M653.115,48.1c-.074-.235-.264-.84-.44-1.565-.191-.786-.23-.907-.519-1.024-.361.008-.6.106-.847.608l-.407.818a1.235,1.235,0,0,0,.525,1.585,3.789,3.789,0,0,0,1.881.18C653.207,48.383,653.136,48.163,653.115,48.1Z" transform="translate(-650.363 -35.65)" fill="url(#linear-gradient-2)"/>
  <path id="Path_252" data-name="Path 252" d="M654.309,48.1c-.074-.235-.264-.84-.44-1.565-.191-.788-.23-.908-.52-1.025.4.564.135,2.367.016,3.2A4.371,4.371,0,0,0,654.5,48.7h0C654.4,48.383,654.329,48.163,654.309,48.1Z" transform="translate(-651.556 -35.649)" opacity="0.2"/>
  <path id="Path_253" data-name="Path 253" d="M658.89,51.429c-.6-1.837-1.4-4.323-1.46-4.5-.259-.826-.448-1.419-2.141-1.419h-1.94c.29.117.329.237.52,1.025.176.725.366,1.331.44,1.565.112.357,1.76,5.414,1.76,5.414a3.4,3.4,0,0,0,.764,1.289A8.588,8.588,0,0,0,658.89,51.429Z" transform="translate(-651.556 -35.649)" fill="url(#linear-gradient-3)"/>
  <g id="Group_108" data-name="Group 108" transform="translate(5.276 13.495)">
    <path id="Path_254" data-name="Path 254" d="M659.883,57.987a8.574,8.574,0,0,0,2.058-3.373L661.2,52.33C661.548,56.363,659.884,57.986,659.883,57.987Z" transform="translate(-659.883 -52.33)" opacity="0.2"/>
    <path id="Path_255" data-name="Path 255" d="M659.883,62.943Z" transform="translate(-659.883 -57.286)" opacity="0.2"/>
  </g>
  <path id="Path_256" data-name="Path 256" d="M669.023,36a1.819,1.819,0,0,1-1.961-2.939,2.375,2.375,0,0,0-1.148,1.344c-.519,1.4-3.375,9.792-3.6,10.312-.768,1.817-1.3,3.31-2.436,4.275.587.655,2.209.641,2.821.525a3,3,0,0,0,2.642-2.327c.278-.764,2.938-8.477,3.911-11.3A1.832,1.832,0,0,1,669.023,36Z" transform="translate(-654.607 -29.835)" fill="url(#linear-gradient-4)"/>
  <path id="Path_257" data-name="Path 257" d="M674.994,35.619a1.327,1.327,0,0,1-1.147-2.379,1.326,1.326,0,1,0,1.2,2.355Z" transform="translate(-660.746 -29.921)"/>
  <ellipse id="Ellipse_6" data-name="Ellipse 6" cx="1.327" cy="1.327" rx="1.327" ry="1.327" transform="translate(11.92 4.366) rotate(-42.435)" fill="url(#linear-gradient-5)"/>
  <path id="Path_258" data-name="Path 258" d="M684.839,32.465a.746.746,0,0,1-.51-.968,2.511,2.511,0,0,0-1.068-2.954.767.767,0,0,1-.036-1.287.751.751,0,0,0-.38.288.767.767,0,0,0,.232,1.091,2.511,2.511,0,0,1,1.068,2.954.762.762,0,0,0,1.148.869A.759.759,0,0,1,684.839,32.465Z" transform="translate(-665.265 -27.127)"/>
  <path id="Path_259" data-name="Path 259" d="M685.923,29.19a3.906,3.906,0,0,1,.023,2.642.761.761,0,0,1-.946.519.746.746,0,0,1-.51-.968,2.512,2.512,0,0,0-1.068-2.954.765.765,0,1,1,.872-1.254A4.4,4.4,0,0,1,685.923,29.19Z" transform="translate(-665.425 -27.014)" fill="url(#linear-gradient-6)"/>
  <path id="Path_260" data-name="Path 260" d="M680.307,33.967a.76.76,0,0,1-.591-.925,1.516,1.516,0,0,0-.54-1.5.772.772,0,0,1-.128-1.129.826.826,0,0,1,.148-.13.756.756,0,0,0-.331.222.772.772,0,0,0,.128,1.129,1.516,1.516,0,0,1,.54,1.5.76.76,0,0,0,.591.925.739.739,0,0,0,.576-.115A.752.752,0,0,1,680.307,33.967Z" transform="translate(-663.381 -28.538)"/>
  <path id="Path_261" data-name="Path 261" d="M681.306,31.7a2.763,2.763,0,0,1,.069,1.535.768.768,0,0,1-.907.624.76.76,0,0,1-.591-.925,1.516,1.516,0,0,0-.54-1.5.768.768,0,1,1,1.009-1.148A3.266,3.266,0,0,1,681.306,31.7Z" transform="translate(-663.542 -28.426)" fill="url(#linear-gradient-7)"/>
  <path id="Path_262" data-name="Path 262" d="M740.079,45.28a.808.808,0,0,0-.815.746v6.746c0,.162.02.52-.19.52-.121,0-.254-.288-.3-.4l-2.44-5.813a3.313,3.313,0,0,0-.721-1.307,1.6,1.6,0,0,0-2.366.1,2.325,2.325,0,0,0-.477,1.522v7.1h0a.813.813,0,0,0,1.62,0h0V47.628a.476.476,0,0,1,.132-.407c.161-.111.283.156.333.264l2.47,5.96a4.1,4.1,0,0,0,.3.743,2.227,2.227,0,0,0,.42.564,1.61,1.61,0,0,0,.577.357,1.591,1.591,0,0,0,1.795-.457,2.415,2.415,0,0,0,.483-1.536v-7.09A.809.809,0,0,0,740.079,45.28Z" transform="translate(-688.639 -35.543)"/>
  <path id="Path_263" data-name="Path 263" d="M757.091,53.282h-3.043c-.854,0-1.331-.044-1.71-.55a4.174,4.174,0,0,1-.569-2.469,4.17,4.17,0,0,1,.576-2.484c.384-.506.859-.62,1.7-.62h3.043a.942.942,0,0,0,0-1.879h-3.043a3.581,3.581,0,0,0-2.93,1.231,5.814,5.814,0,0,0-1.016,3.752A5.784,5.784,0,0,0,751.118,54a3.58,3.58,0,0,0,2.93,1.231h3.043a.932.932,0,0,0,.87-.939A1,1,0,0,0,757.091,53.282Z" transform="translate(-696.734 -35.543)"/>
  <g id="Group_109" data-name="Group 109" transform="translate(62.087 9.737)">
    <path id="Path_264" data-name="Path 264" d="M772.979,56.8h-4.331c-.155,0-.179-.058-.179-.162v-2c0-.141.049-.2.19-.2h3.724v0a.819.819,0,0,0,0-1.629V52.79c-.1-.01-3.176.008-5.3,0-.413,0-.627.213-.627.681.006,1.727,0,3.014,0,4.741,0,.358.147.523.549.523h5.968a.972.972,0,0,0,0-1.939Z" transform="translate(-766.457 -48.785)"/>
    <path id="Path_265" data-name="Path 265" d="M767.084,48.173c.436,0,.914,0,1.4,0v-1h4.5a.951.951,0,0,0,0-1.9h-5.643a.878.878,0,0,0-.878.878v2.649h0C766.473,48.372,766.685,48.173,767.084,48.173Z" transform="translate(-766.457 -45.28)"/>
  </g>
  <path id="Path_266" data-name="Path 266" d="M695.507,50.931a2.427,2.427,0,0,0,1.46-.965,2.726,2.726,0,0,0,.319-.857,4.2,4.2,0,0,0,.1-.922,3.913,3.913,0,0,0-.159-1.118,2.572,2.572,0,0,0-.5-.937,2.439,2.439,0,0,0-.86-.639,2.988,2.988,0,0,0-1.249-.212h-3.808c-.853,0-.841.873-.841,1.134v2.393h0c.014-.435.227-.633.625-.633.437,0,.774,0,1.258,0v-1h2.738a.94.94,0,0,1,.94.94v.229a.94.94,0,0,1-.94.94H691.32c-1.438,0-1.351-.045-1.351,1.893v3.3c0,.415.545.752.961.752s.908-.336.908-.752v-3.3q0-.247.216-.247h1.108a.482.482,0,0,1,.51.32c.058.118,1.541,2.883,1.659,3.123,0,.007,0,.014.008.021.217.434.522.843,1.024.835.461-.006.97-.449.787-.835h0l-.025-.05c-.062-.132-.116-.246-.166-.341-.4-.823-1.483-2.825-1.523-2.909A.107.107,0,0,1,695.507,50.931Z" transform="translate(-668.655 -35.543)"/>
  <path id="Path_267" data-name="Path 267" d="M680.809,54.379h0l-2.593-7.925a1.771,1.771,0,0,0-.658-.964,1.55,1.55,0,0,0-1.77,0,1.816,1.816,0,0,0-.671.964l-2.694,7.93c-.145.426.271.809.722.815a1.165,1.165,0,0,0,1.048-.815l2.405-7.115c.037-.124.09-.124.124,0L677.9,50.9H676.49l-.546,1.619h2.481l.6,1.86h0a1.171,1.171,0,0,0,1.055.82C680.536,55.193,680.954,54.808,680.809,54.379Z" transform="translate(-660.449 -35.511)"/>
  <path id="Path_268" data-name="Path 268" d="M723.959,54.379h0l-2.593-7.925a1.772,1.772,0,0,0-.658-.964,1.55,1.55,0,0,0-1.77,0,1.813,1.813,0,0,0-.671.964l-2.694,7.93c-.144.426.271.809.722.815a1.165,1.165,0,0,0,1.048-.815l2.405-7.115c.037-.124.089-.124.124,0L721.05,50.9h-1.41l-.546,1.619h2.481l.6,1.86h0a1.172,1.172,0,0,0,1.055.82C723.686,55.193,724.1,54.808,723.959,54.379Z" transform="translate(-680.598 -35.511)"/>
</svg>
