<svg xmlns="http://www.w3.org/2000/svg" xmlns:xlink="http://www.w3.org/1999/xlink" width="25.513" height="20" viewBox="0 0 25.513 20">
  <defs>
    <linearGradient id="linear-gradient" y1="0.5" x2="1" y2="0.5" gradientUnits="objectBoundingBox">
      <stop offset="0" stop-color="#ffa800"/>
      <stop offset="1" stop-color="#d63c1a"/>
    </linearGradient>
    <linearGradient id="linear-gradient-2" x1="-0.199" y1="0.345" x2="1.024" y2="0.596" xlink:href="#linear-gradient"/>
    <linearGradient id="linear-gradient-3" x1="0.018" y1="0.974" x2="1.047" y2="0.108" gradientUnits="objectBoundingBox">
      <stop offset="0" stop-color="#d63c1a"/>
      <stop offset="1" stop-color="#ffa800"/>
    </linearGradient>
    <linearGradient id="linear-gradient-4" x1="54.184" y1="13.631" x2="55.184" y2="13.631" xlink:href="#linear-gradient"/>
    <linearGradient id="linear-gradient-5" x1="46.511" y1="7.346" x2="47.239" y2="7.346" xlink:href="#linear-gradient"/>
    <linearGradient id="linear-gradient-6" x1="59.338" y1="9.863" x2="60.115" y2="9.863" xlink:href="#linear-gradient"/>
  </defs>
  <g id="Group_32338" data-name="Group 32338" transform="translate(0)">
    <g id="Group_25911" data-name="Group 25911" transform="translate(0 0)">
      <path id="Path_47173" data-name="Path 47173" d="M521.141,239.828c-.611.116-2.233.132-2.82-.525h0a3.4,3.4,0,0,1-.763-1.288s-1.1-3.387-1.566-4.813a3.783,3.783,0,0,1-1.88-.18,1.235,1.235,0,0,1-.526-1.584l.407-.819a1.733,1.733,0,0,1,.2-.326c-.248.047-.437.191-.634.588l-.407.819a1.235,1.235,0,0,0,.523,1.586,3.783,3.783,0,0,0,1.88.179l1.567,4.813a3.393,3.393,0,0,0,.763,1.288h0c.586.653,2.208.641,2.82.525a3.089,3.089,0,0,0,1.448-.545A3.789,3.789,0,0,1,521.141,239.828Z" transform="translate(-513.046 -220.151)" fill="#2b2b2b"/>
      <path id="Path_47174" data-name="Path 47174" d="M520.062,236.234l.378-.9c.219-.52,3.076-8.908,3.6-10.309a2.368,2.368,0,0,1,1.147-1.343,3.393,3.393,0,0,0-1.578,1.6c-.518,1.4-3.378,9.789-3.594,10.309l-.088.209Z" transform="translate(-512.729 -220.455)" fill="#2b2b2b"/>
      <path id="Path_47175" data-name="Path 47175" d="M515.781,232.612c-.075-.234-.265-.84-.44-1.565-.19-.786-.229-.907-.517-1.023-.362.007-.6.1-.847.607l-.407.819a1.235,1.235,0,0,0,.526,1.584,3.781,3.781,0,0,0,1.879.18C515.872,232.9,515.8,232.677,515.781,232.612Z" transform="translate(-513.029 -220.163)" fill="url(#linear-gradient)"/>
      <path id="Path_47176" data-name="Path 47176" d="M515.719,232.611c-.074-.234-.265-.84-.44-1.566-.191-.788-.229-.907-.52-1.024.4.564.133,2.367.015,3.2a4.351,4.351,0,0,0,1.14-.009h0C515.809,232.9,515.739,232.676,515.719,232.611Z" transform="translate(-512.966 -220.162)" fill="#040506" opacity="0.2"/>
      <path id="Path_47177" data-name="Path 47177" d="M520.3,235.94c-.6-1.836-1.4-4.322-1.457-4.5-.258-.826-.448-1.419-2.141-1.419h-1.939c.291.116.331.236.52,1.024.176.729.366,1.331.44,1.566.112.356,1.76,5.413,1.76,5.413a3.4,3.4,0,0,0,.763,1.288A8.565,8.565,0,0,0,520.3,235.94Z" transform="translate(-512.967 -220.161)" fill="url(#linear-gradient-2)"/>
      <g id="Group_25910" data-name="Group 25910" transform="translate(5.275 13.498)">
        <path id="Path_47178" data-name="Path 47178" d="M518.088,239.161a8.608,8.608,0,0,0,2.058-3.372l-.742-2.284C519.752,237.535,518.09,239.157,518.088,239.161Z" transform="translate(-518.088 -233.505)" fill="#040506" opacity="0.2"/>
        <path id="Path_47179" data-name="Path 47179" d="M518.088,238.908Z" transform="translate(-518.088 -233.254)" fill="#040506" opacity="0.2"/>
      </g>
      <path id="Path_47180" data-name="Path 47180" d="M523.389,238.039a10.274,10.274,0,0,1,.035-7.655,4.111,4.111,0,0,1,3.474-2.239c.219-.636.413-1.2.565-1.637a1.7,1.7,0,0,1-.235.107,1.819,1.819,0,0,1-1.96-2.938,2.368,2.368,0,0,0-1.147,1.343c-.519,1.4-3.378,9.789-3.594,10.309-.768,1.816-1.3,3.312-2.435,4.274.587.654,2.209.641,2.82.525a2.914,2.914,0,0,0,2.517-2.014C523.415,238.09,523.4,238.065,523.389,238.039Z" transform="translate(-512.814 -220.454)" fill="url(#linear-gradient-3)"/>
      <path id="Path_47181" data-name="Path 47181" d="M526.712,226.148a1.325,1.325,0,0,1-1.147-2.379,1.325,1.325,0,1,0,.963,2.47,1.243,1.243,0,0,0,.241-.116A.434.434,0,0,1,526.712,226.148Z" transform="translate(-512.466 -220.448)" fill="#2b2b2b"/>
      <ellipse id="Ellipse_1253" data-name="Ellipse 1253" cx="1.327" cy="1.327" rx="1.327" ry="1.327" transform="translate(12.466 3.125)" fill="url(#linear-gradient-4)"/>
      <path id="Path_47182" data-name="Path 47182" d="M531.859,225.927a.746.746,0,0,1-.51-.968,2.512,2.512,0,0,0-1.068-2.953.769.769,0,0,1-.233-1.09.8.8,0,0,1,.2-.2.75.75,0,0,0-.38.289.767.767,0,0,0,.233,1.09,2.51,2.51,0,0,1,1.068,2.953.761.761,0,0,0,1.148.869A.764.764,0,0,1,531.859,225.927Z" transform="translate(-512.287 -220.587)" fill="#2b2b2b"/>
      <path id="Path_47183" data-name="Path 47183" d="M532.766,222.766a3.908,3.908,0,0,1,.024,2.641.761.761,0,0,1-.947.52.746.746,0,0,1-.511-.968,2.512,2.512,0,0,0-1.068-2.953.765.765,0,1,1,.872-1.254A4.39,4.39,0,0,1,532.766,222.766Z" transform="translate(-512.273 -220.587)" fill="url(#linear-gradient-5)"/>
      <path id="Path_47184" data-name="Path 47184" d="M529.3,225.946a.76.76,0,0,1-.591-.927,1.515,1.515,0,0,0-.54-1.5.774.774,0,0,1-.128-1.129.827.827,0,0,1,.147-.132.764.764,0,0,0-.331.223.774.774,0,0,0,.129,1.126,1.514,1.514,0,0,1,.539,1.506.761.761,0,0,0,.591.927.742.742,0,0,0,.576-.115.76.76,0,0,1-.392.022Z" transform="translate(-512.381 -220.515)" fill="#2b2b2b"/>
      <path id="Path_47185" data-name="Path 47185" d="M530.132,223.789a2.759,2.759,0,0,1,.066,1.535.764.764,0,1,1-1.5-.3,1.515,1.515,0,0,0-.54-1.5.768.768,0,1,1,1.009-1.149,3.267,3.267,0,0,1,.962,1.42Z" transform="translate(-512.368 -220.516)" fill="url(#linear-gradient-6)"/>
    </g>
    <path id="Path_47186" data-name="Path 47186" d="M530.539,238.775v-9.493a4.367,4.367,0,0,0-3.205-1.184,4.257,4.257,0,0,0-3.464,1.468,4.08,4.08,0,0,0-.478.729,9.935,9.935,0,0,0-.034,7.413,4.068,4.068,0,0,0,3.974,2.261,4.366,4.366,0,0,0,3.205-1.184Zm-1.352-2.02c-.413.551-.932.6-1.854.6s-1.441-.053-1.855-.6a6.211,6.211,0,0,1,.007-5.451c.417-.552.934-.68,1.847-.682a1.985,1.985,0,0,1,1.845.682,6.213,6.213,0,0,1,.008,5.451Z" transform="translate(-512.605 -220.242)" fill="#2b2b2b"/>
    <path id="Path_47187" data-name="Path 47187" d="M536.709,240.006H531.6a1.217,1.217,0,0,1-1.216-1.216v-9.562a1.176,1.176,0,0,1,1.167-1.216,1.192,1.192,0,0,1,1.185,1.216s.008,8.461.008,8.492h3.964a1.147,1.147,0,0,1,0,2.286Z" transform="translate(-512.25 -220.256)" fill="#2b2b2b"/>
  </g>
</svg>
