<svg xmlns="http://www.w3.org/2000/svg" width="18.221" height="18" viewBox="0 0 18.221 18">
  <g id="_01_align_center" data-name="01 align center" transform="translate(0 -0.32)">
    <path id="Path_186044" data-name="Path 186044" d="M10.126.709a1.518,1.518,0,0,0-2.032,0L0,7.995v7.9A2.429,2.429,0,0,0,2.429,18.32H15.791a2.429,2.429,0,0,0,2.429-2.429v-7.9ZM11.388,16.8H6.833V12.983a2.278,2.278,0,1,1,4.555,0Zm5.314-.911a.911.911,0,0,1-.911.911H12.906V12.983a3.8,3.8,0,0,0-7.592,0V16.8H2.429a.911.911,0,0,1-.911-.911V8.67L9.11,1.838,16.7,8.67Z" transform="translate(0 0)" fill="#fff"/>
  </g>
</svg>
