<svg width="19" height="20" viewBox="0 0 19 20" fill="none" xmlns="http://www.w3.org/2000/svg">
<path d="M2.21986 8.37531C2.21986 6.15546 2.21986 3.93562 2.21986 1.71577C2.21986 0.668861 2.88872 0 3.92594 0C8.38501 0 12.8441 0 17.2935 0C18.3307 0 18.9995 0.668861 18.9995 1.70608C18.9995 6.16516 18.9995 10.6242 18.9995 15.0736C18.9995 16.1108 18.3307 16.7797 17.2935 16.7797C12.8344 16.7797 8.37532 16.7797 3.92594 16.7797C2.87902 16.7797 2.21986 16.1205 2.21986 15.0736C2.21986 12.8441 2.21986 10.6145 2.21986 8.37531ZM17.7297 8.39469C17.7297 6.17485 17.7297 3.95501 17.7297 1.73516C17.7297 1.3765 17.6424 1.28925 17.2935 1.28925C12.8441 1.28925 8.39471 1.28925 3.94532 1.28925C3.58666 1.28925 3.49942 1.3765 3.49942 1.73516C3.49942 6.18454 3.49942 10.6339 3.49942 15.0833C3.49942 15.442 3.57697 15.5195 3.94532 15.5195C8.38501 15.5195 12.8247 15.5195 17.2741 15.5195C17.6424 15.5195 17.7297 15.4323 17.7297 15.0639C17.7297 12.8344 17.7297 10.6145 17.7297 8.39469Z" fill="#7B8592"/>
<path d="M8.8406 19.0092C6.47535 19.0092 4.10041 19.0092 1.73516 19.0092C0.668861 19.0092 0 18.3501 0 17.2838C0 12.5339 0 7.78401 0 3.02443C0 2.95657 0 2.88872 0 2.82086C0.0290809 2.48158 0.300503 2.22955 0.630087 2.21986C0.95967 2.21986 1.23109 2.4622 1.26987 2.80148C1.27956 2.88872 1.27956 2.97596 1.27956 3.0632C1.27956 7.78401 1.27956 12.5048 1.27956 17.2353C1.27956 17.6521 1.34742 17.7297 1.76424 17.7297C6.48505 17.7297 11.2059 17.7297 15.9363 17.7297C16.0139 17.7297 16.1011 17.7297 16.1787 17.7297C16.5277 17.7588 16.7894 18.0302 16.7894 18.3695C16.7894 18.699 16.5374 18.9705 16.1884 18.9996C16.1108 19.0092 16.043 18.9996 15.9654 18.9996C13.5905 19.0092 11.2155 19.0092 8.8406 19.0092Z" fill="#7B8592"/>
<path d="M8.0845 8.38498C8.0845 7.7452 8.07481 7.11511 8.0845 6.47533C8.0942 5.6029 8.97632 5.07945 9.74212 5.50597C10.8569 6.13605 11.962 6.77583 13.067 7.42531C13.8522 7.8906 13.8425 8.90844 13.067 9.37373C11.9813 10.0135 10.886 10.6436 9.78089 11.2737C8.97632 11.7293 8.0942 11.2058 8.0845 10.2752C8.07481 9.64515 8.0845 9.01506 8.0845 8.38498ZM12.2043 8.39467C11.2446 7.84213 10.3237 7.30898 9.37376 6.76614C9.37376 7.87121 9.37376 8.93752 9.37376 10.0329C10.3237 9.48036 11.2446 8.94721 12.2043 8.39467Z" fill="#7B8592"/>
</svg>
