<svg width="20" height="20" viewBox="0 0 20 20" fill="none" xmlns="http://www.w3.org/2000/svg">
<path d="M6.67394 3.3333C6.67394 3.66294 6.57625 3.98519 6.39322 4.25928C6.21019 4.53336 5.95003 4.74701 5.64567 4.87316C5.3413 4.9993 5.00638 5.03227 4.68326 4.96796C4.36015 4.90365 4.06335 4.74491 3.8304 4.51183C3.59744 4.27874 3.4388 3.98179 3.37453 3.65849C3.31026 3.33518 3.34325 3.0001 3.46932 2.69555C3.59539 2.39101 3.80889 2.13067 4.08281 1.94753C4.35673 1.7644 4.67879 1.66663 5.00823 1.66663C5.45001 1.66663 5.87368 1.84229 6.18606 2.15485C6.49844 2.46741 6.67394 2.89128 6.67394 3.3333ZM8.33965 3.3333C8.33965 2.67403 8.14425 2.02959 7.77819 1.48143C7.41213 0.933261 6.89185 0.506028 6.28312 0.253735C5.67438 0.00144273 5.00453 -0.0645664 4.3583 0.0640512C3.71207 0.192669 3.11847 0.510149 2.65256 0.976325C2.18666 1.4425 1.86937 2.0364 1.74082 2.68301C1.61228 3.32961 1.67826 3.99985 1.93041 4.60894C2.18255 5.21803 2.60955 5.73864 3.1574 6.10491C3.70525 6.47119 4.34934 6.66664 5.00823 6.66664C5.89178 6.66664 6.73914 6.31547 7.3639 5.69035C7.98866 5.06523 8.33965 4.21736 8.33965 3.3333ZM16.6682 3.3333C16.6682 3.66294 16.5705 3.98519 16.3875 4.25928C16.2044 4.53336 15.9443 4.74701 15.6399 4.87316C15.3355 4.9993 15.0006 5.03227 14.6775 4.96796C14.3544 4.90365 14.0576 4.74491 13.8246 4.51183C13.5917 4.27874 13.4331 3.98179 13.3688 3.65849C13.3045 3.33518 13.3375 3.0001 13.4636 2.69555C13.5896 2.39101 13.8031 2.13067 14.0771 1.94753C14.351 1.7644 14.673 1.66663 15.0025 1.66663C15.4443 1.66663 15.8679 1.84229 16.1803 2.15485C16.4927 2.46741 16.6682 2.89128 16.6682 3.3333ZM18.3339 3.3333C18.3339 2.67403 18.1385 2.02959 17.7724 1.48143C17.4064 0.933261 16.8861 0.506028 16.2774 0.253735C15.6686 0.00144273 14.9988 -0.0645664 14.3526 0.0640512C13.7063 0.192669 13.1127 0.510149 12.6468 0.976325C12.1809 1.4425 11.8636 2.0364 11.7351 2.68301C11.6065 3.32961 11.6725 3.99985 11.9247 4.60894C12.1768 5.21803 12.6038 5.73864 13.1516 6.10491C13.6995 6.47119 14.3436 6.66664 15.0025 6.66664C15.886 6.66664 16.7334 6.31547 17.3582 5.69035C17.9829 5.06523 18.3339 4.21736 18.3339 3.3333ZM15.0025 17.5C15.0025 16.837 14.7392 16.2011 14.2707 15.7323C13.8021 15.2634 13.1666 15 12.5039 15H7.50679C6.84413 15 6.20862 15.2634 5.74005 15.7323C5.27147 16.2011 5.00823 16.837 5.00823 17.5V20H6.67394V17.4556C6.67394 17.2346 6.76168 17.0226 6.91787 16.8663C7.07406 16.71 7.28591 16.6222 7.50679 16.6222H12.5039C12.7239 16.6251 12.9341 16.7138 13.0897 16.8695C13.2452 17.0252 13.3339 17.2355 13.3368 17.4556V19.9556H15.0025V17.5ZM11.6711 10.8333C11.6711 11.163 11.5734 11.4852 11.3903 11.7593C11.2073 12.0334 10.9472 12.247 10.6428 12.3732C10.3384 12.4993 10.0035 12.5323 9.6804 12.468C9.35728 12.4037 9.06047 12.2449 8.82751 12.0118C8.59456 11.7788 8.43593 11.4818 8.37166 11.1585C8.30739 10.8352 8.34037 10.5001 8.46644 10.1956C8.59252 9.89102 8.80601 9.63068 9.07994 9.44755C9.35386 9.26441 9.67591 9.16665 10.0054 9.16665C10.4395 9.16649 10.8566 9.33598 11.1678 9.63899C11.4789 9.942 11.6595 10.3546 11.6711 10.7889V10.8333ZM13.3368 10.8333C13.3368 10.174 13.1414 9.5296 12.7753 8.98144C12.4093 8.43327 11.889 8.00604 11.2802 7.75375C10.6715 7.50146 10.0017 7.43545 9.35544 7.56406C8.7092 7.69268 8.11559 8.01016 7.64969 8.47634C7.18378 8.94251 6.8665 9.53642 6.73796 10.183C6.60941 10.8296 6.67538 11.4999 6.92753 12.109C7.17968 12.718 7.60666 13.2387 8.15451 13.6049C8.70236 13.9712 9.34647 14.1667 10.0054 14.1667C10.4466 14.1667 10.8835 14.079 11.2906 13.9087C11.6977 13.7385 12.0669 13.4889 12.3769 13.1747C12.6868 12.8604 12.9313 12.4877 13.096 12.0782C13.2608 11.6686 13.3427 11.2304 13.3368 10.7889V10.8333ZM17.501 7.49998H13.7254C14.1568 7.98835 14.4921 8.5538 14.7138 9.16665H17.501C17.721 9.16952 17.9312 9.25825 18.0868 9.41391C18.2424 9.56957 18.331 9.77986 18.3339 9.99998V12.5H19.9996V9.99998C20.0055 9.66796 19.9452 9.33812 19.8223 9.02966C19.6994 8.72119 19.5163 8.44032 19.2837 8.20344C19.0511 7.96657 18.7736 7.7784 18.4676 7.64999C18.1615 7.52158 17.8329 7.4555 17.501 7.45556V7.49998ZM5.28585 9.16665H2.49856C2.27768 9.16665 2.06584 9.25444 1.90965 9.41072C1.75346 9.567 1.66571 9.77897 1.66571 9.99998V12.5H0V9.99998C0 9.33694 0.263243 8.70111 0.731814 8.23226C1.20039 7.76342 1.8359 7.49998 2.49856 7.49998H6.27417C5.84283 7.98835 5.50752 8.5538 5.28585 9.16665Z" fill="#7B8491"/>
</svg>
