<svg width="15" height="22" viewBox="0 0 15 22" fill="none" xmlns="http://www.w3.org/2000/svg">
<path d="M13.69 1.15611H11.46C11.36 1.15611 11.27 1.17611 11.19 1.21611V0.746109C11.19 0.526109 11.09 0.326109 10.93 0.176109C10.76 0.0361094 10.53 -0.0338906 10.33 0.0161094L0.64 1.61611C0.26 1.66611 0 1.97611 0 2.33611V19.4061C0 19.7761 0.26 20.0761 0.62 20.1361L10.37 21.7361L10.49 21.7461C10.67 21.7461 10.84 21.6861 10.97 21.5661C11.14 21.4261 11.23 21.2161 11.23 20.9961V20.4061C11.34 20.4761 11.47 20.5261 11.62 20.5261H13.69C14.1 20.5261 14.43 20.1961 14.43 19.7861V1.89611C14.43 1.48611 14.1 1.15611 13.69 1.15611ZM9.75 20.1361L1.49 18.7861V2.96611L9.7 1.61611L9.75 20.1361ZM11.19 2.58611C11.27 2.61611 11.36 2.63611 11.46 2.63611H12.95V19.0461H11.63C11.48 19.0461 11.35 19.0961 11.24 19.1761L11.19 2.58611Z" fill="#7B8592"/>
<path d="M8.51002 12.2361C8.99002 12.2361 9.38001 11.8461 9.38001 11.3661C9.38001 10.8861 8.99002 10.4961 8.51002 10.4961C8.03002 10.4961 7.64001 10.8861 7.64001 11.3661C7.64001 11.8461 8.03002 12.2361 8.51002 12.2361Z" fill="#7B8592"/>
</svg>
