<svg width="22" height="21" viewBox="0 0 22 21" fill="none" xmlns="http://www.w3.org/2000/svg">
<path d="M20.66 13.9446C20.35 14.4346 19.9 14.7746 19.33 14.9346C19.27 14.9446 19.21 15.0146 19.18 15.0746C19.04 15.3646 18.83 15.5846 18.54 15.7346C18.48 15.7646 18.42 15.8646 18.41 15.9346C18.32 16.7346 18.07 17.4646 17.53 18.0846C16.94 18.7546 16.19 19.1246 15.31 19.2146C14.68 19.2846 14.04 19.2646 13.41 19.2746C13.28 19.2746 13.2 19.3046 13.13 19.4246C12.89 19.9046 12.48 20.1246 11.96 20.1346C11.27 20.1446 10.57 20.1446 9.87 20.1346C9.12 20.1246 8.57 19.5546 8.57 18.8446C8.57 18.1346 9.13 17.5746 9.86 17.5646C10.56 17.5546 11.27 17.5546 11.97 17.5646C12.5 17.5746 12.9 17.8146 13.15 18.2946C13.18 18.3446 13.26 18.4146 13.31 18.4146C14.04 18.4146 14.77 18.4746 15.49 18.3146C16.72 18.0246 17.39 17.1446 17.51 15.9346C17.51 15.8646 17.47 15.7646 17.41 15.7246C16.92 15.4646 16.7 15.0546 16.7 14.5146C16.7 12.4146 16.7 10.3046 16.7 8.19456C16.7 7.66456 16.92 7.26456 17.4 6.99456C17.45 6.96456 17.49 6.86456 17.49 6.80456C17.25 4.98456 16.39 3.51456 14.97 2.35456C13.97 1.54456 12.82 1.05456 11.54 0.904564C9.86 0.714564 8.29 1.08456 6.9 2.03456C5.47 3.00456 4.53 4.33456 4.08 6.00456C4.01 6.25456 3.97 6.53456 3.93 6.80456C3.92 6.86456 3.98 6.97456 4.04 7.00456C4.5 7.27456 4.72 7.68456 4.72 8.21456V14.5146C4.72 15.0846 4.47 15.5146 3.95 15.7446C3.46 15.9546 2.98 15.8846 2.57 15.5246C2.49 15.4546 2.39 15.3746 2.36 15.2746C2.28 15.0246 2.08 14.9446 1.85 14.8546C1.12 14.5646 0.66 13.9846 0.39 13.2746C0.23 12.8546 0.16 12.4046 0.04 11.9746C0.03 11.9146 0.01 11.8746 0 11.8246V10.9046C0.08 10.5246 0.14 10.1446 0.26 9.77456C0.51 9.00456 0.91 8.33456 1.65 7.96456C1.99 7.79456 2.29 7.63456 2.48 7.29456C2.56 7.14456 2.77 7.07456 2.92 6.95456C2.98 6.91456 3.04 6.84456 3.05 6.77456C3.48 3.38456 6.08 0.654564 9.43 0.114564C11.89 -0.285436 14.05 0.364564 15.9 2.02456C17.26 3.25456 18.06 4.78456 18.34 6.58456C18.37 6.81456 18.44 6.93456 18.64 7.04456C18.81 7.13456 18.98 7.30456 19.08 7.47456C19.19 7.66456 19.31 7.76456 19.51 7.83456C20.1 8.04456 20.53 8.45456 20.81 8.99456C21.68 10.6746 21.67 12.3346 20.66 13.9446Z" fill="#7B8592"/>
</svg>
