<svg xmlns="http://www.w3.org/2000/svg" width="16.007" height="16" viewBox="0 0 16.007 16">
  <g id="add-user_3_" data-name="add-user (3)" transform="translate(-26.666 -5.336)">
    <path id="Path_4" data-name="Path 4" d="M171.073,162.071a2.532,2.532,0,1,1,2.532-2.532A2.537,2.537,0,0,1,171.073,162.071Zm0-3.989a1.465,1.465,0,1,0,1.465,1.465A1.467,1.467,0,0,0,171.073,158.082Z" transform="translate(-137.146 -146.616)" fill="#f8f8f8"/>
    <path id="Path_5" data-name="Path 5" d="M125.665,328.763a.537.537,0,0,1-.533-.533c0-1.365-1.415-2.475-3.157-2.475s-3.157,1.109-3.157,2.475a.533.533,0,0,1-1.067,0c0-1.948,1.892-3.541,4.224-3.541s4.224,1.586,4.224,3.541A.537.537,0,0,1,125.665,328.763Z" transform="translate(-88.048 -308.707)" fill="#f8f8f8"/>
    <path id="Path_6" data-name="Path 6" d="M33.955,62.578a7.289,7.289,0,1,1,2.837-14.009.53.53,0,0,1,.3.654,2.319,2.319,0,0,0-.114.732,2.253,2.253,0,0,0,.334,1.188,2.066,2.066,0,0,0,.434.526A2.312,2.312,0,0,0,40,52.153a.526.526,0,0,1,.668.3,7.287,7.287,0,0,1-6.713,10.126Zm0-13.511a6.222,6.222,0,1,0,6.222,6.222,6.4,6.4,0,0,0-.327-2.005,3.378,3.378,0,0,1-2.809-.825,3.045,3.045,0,0,1-.64-.768,3.339,3.339,0,0,1-.484-1.735,2.947,2.947,0,0,1,.05-.562A6.216,6.216,0,0,0,33.955,49.067Z" transform="translate(0 -41.242)" fill="#f8f8f8"/>
    <path id="Path_7" data-name="Path 7" d="M307.378,12.091a3.343,3.343,0,0,1-2.254-.875,3.044,3.044,0,0,1-.64-.768,3.362,3.362,0,0,1-.313-2.795,3.25,3.25,0,0,1,.789-1.294,3.382,3.382,0,0,1,5.8,2.354,2.987,2.987,0,0,1-.107.8,3.031,3.031,0,0,1-.391.946,3.278,3.278,0,0,1-1.835,1.458A2.973,2.973,0,0,1,307.378,12.091Zm0-5.689a2.289,2.289,0,0,0-1.657.7,2.213,2.213,0,0,0-.533.882,2.319,2.319,0,0,0-.114.732,2.253,2.253,0,0,0,.334,1.188,2.066,2.066,0,0,0,.434.526,2.312,2.312,0,0,0,2.254.484,2.255,2.255,0,0,0,1.266-1,2.105,2.105,0,0,0,.263-.647,2.068,2.068,0,0,0,.071-.548A2.323,2.323,0,0,0,307.378,6.4Z" transform="translate(-268.089)" fill="#f8f8f8"/>
    <path id="Path_8" data-name="Path 8" d="M359.994,91.309h-2.126a.533.533,0,0,1,0-1.067h2.126a.533.533,0,1,1,0,1.067Z" transform="translate(-319.646 -82.076)" fill="#f8f8f8"/>
    <path id="Path_9" data-name="Path 9" d="M389.867,62.287a.537.537,0,0,1-.533-.533V59.627a.533.533,0,1,1,1.067,0v2.126A.533.533,0,0,1,389.867,62.287Z" transform="translate(-350.579 -51.966)" fill="#f8f8f8"/>
  </g>
</svg>
