<svg id="camera_2_" data-name="camera (2)" xmlns="http://www.w3.org/2000/svg" width="18" height="18" viewBox="0 0 18 18">
  <path id="Path_186159" data-name="Path 186159" d="M14.25,3h-.381L12.231.876A2.267,2.267,0,0,0,10.449,0h-2.9A2.267,2.267,0,0,0,5.769.876L4.131,3H3.75A3.754,3.754,0,0,0,0,6.75v7.5A3.755,3.755,0,0,0,3.75,18h10.5A3.755,3.755,0,0,0,18,14.25V6.75A3.755,3.755,0,0,0,14.25,3ZM6.957,1.793A.755.755,0,0,1,7.551,1.5h2.9a.756.756,0,0,1,.594.293L11.974,3H6.026ZM16.5,14.25a2.25,2.25,0,0,1-2.25,2.25H3.75A2.25,2.25,0,0,1,1.5,14.25V6.75A2.25,2.25,0,0,1,3.75,4.5h10.5A2.25,2.25,0,0,1,16.5,6.75Z" fill="#fff"/>
  <path id="Path_186160" data-name="Path 186160" d="M10.5,8A4.5,4.5,0,1,0,15,12.5,4.5,4.5,0,0,0,10.5,8Zm0,7.5a3,3,0,1,1,3-3A3,3,0,0,1,10.5,15.5Z" transform="translate(-1.5 -2)" fill="#fff"/>
</svg>
