<svg id="microphone_2_" data-name="microphone (2)" xmlns="http://www.w3.org/2000/svg" width="18" height="18" viewBox="0 0 18 18">
  <path id="Path_186161" data-name="Path 186161" d="M10,15a6.007,6.007,0,0,0,6-6V6A6,6,0,0,0,4,6V9a6.007,6.007,0,0,0,6,6ZM10,1.5a4.5,4.5,0,0,1,4.432,3.75H12.25a.75.75,0,0,0,0,1.5H14.5v1.5H12.25a.75.75,0,0,0,0,1.5h2.182a4.495,4.495,0,0,1-8.865,0H7.75a.75.75,0,0,0,0-1.5H5.5V6.75H7.75a.75.75,0,0,0,0-1.5H5.568A4.5,4.5,0,0,1,10,1.5Z" transform="translate(-1)" fill="#fff"/>
  <path id="Path_186162" data-name="Path 186162" d="M17.25,12a.75.75,0,0,0-.75.75A6.757,6.757,0,0,1,9.75,19.5H8.25A6.758,6.758,0,0,1,1.5,12.75a.75.75,0,0,0-1.5,0A8.26,8.26,0,0,0,8.25,21h1.5A8.26,8.26,0,0,0,18,12.75a.75.75,0,0,0-.75-.75Z" transform="translate(0 -3)" fill="#fff"/>
</svg>
