<svg xmlns="http://www.w3.org/2000/svg" width="19.895" height="18" viewBox="0 0 19.895 18">
  <path id="_8675097_ic_fluent_picture_in_enter_icon" data-name="8675097_ic_fluent_picture_in_enter_icon" d="M2,6.079A3.079,3.079,0,0,1,5.079,3H17.868a3.079,3.079,0,0,1,3.079,3.079v5.447H19.526V6.079a1.658,1.658,0,0,0-1.658-1.658H5.079A1.658,1.658,0,0,0,3.421,6.079v9a1.658,1.658,0,0,0,1.658,1.658h5.447v1.421H5.079A3.079,3.079,0,0,1,2,15.079Zm11.368,6.395a1.9,1.9,0,0,0-1.895,1.895v4.737A1.9,1.9,0,0,0,13.368,21H20a1.9,1.9,0,0,0,1.895-1.895V14.368A1.9,1.9,0,0,0,20,12.474ZM5.05,6.05a.711.711,0,0,1,1,0L9.105,9.1V7.5a.711.711,0,1,1,1.421,0v3.316a.711.711,0,0,1-.711.711H6.5a.711.711,0,0,1,0-1.421H8.1L5.05,7.055A.711.711,0,0,1,5.05,6.05Z" transform="translate(-2 -3)" fill="#fff"/>
</svg>
