<svg xmlns="http://www.w3.org/2000/svg" width="17.931" height="18" viewBox="0 0 17.931 18">
  <g id="refresh_2_" data-name="refresh (2)" transform="translate(-0.982)">
    <path id="Path_186163" data-name="Path 186163" d="M9.947,1.5a7.524,7.524,0,0,1,5.341,2.25H12.947a.75.75,0,1,0,0,1.5h3.107a1.393,1.393,0,0,0,1.393-1.393V.75a.75.75,0,0,0-1.5,0V2.309A8.985,8.985,0,0,0,.985,8.175.755.755,0,0,0,1.667,9Q1.7,9,1.735,9a.736.736,0,0,0,.742-.658A7.51,7.51,0,0,1,9.947,1.5Z" transform="translate(0 0)" fill="#fff"/>
    <path id="Path_186164" data-name="Path 186164" d="M58.388,256.006a.736.736,0,0,0-.742.658,7.489,7.489,0,0,1-12.813,4.591h2.341a.75.75,0,1,0,0-1.5H44.068a1.392,1.392,0,0,0-1.393,1.391v3.109a.75.75,0,1,0,1.5,0V262.7a8.985,8.985,0,0,0,14.962-5.866.755.755,0,0,0-.682-.822Q58.421,256.006,58.388,256.006Z" transform="translate(-40.228 -247.006)" fill="#fff"/>
  </g>
</svg>
