<svg xmlns="http://www.w3.org/2000/svg" width="18.019" height="18" viewBox="0 0 18.019 18">
  <path id="share_4_" data-name="share (4)" d="M14.492,11a3.5,3.5,0,0,0-2.879,1.518l-4.881-2.2a3.43,3.43,0,0,0,0-2.616L11.61,5.482A3.495,3.495,0,1,0,10.99,3.5a3.474,3.474,0,0,0,.06.589L5.868,6.444a3.5,3.5,0,1,0-.011,5.12l5.2,2.346a3.552,3.552,0,0,0-.059.589,3.5,3.5,0,1,0,3.5-3.5Zm0-9.5a2,2,0,1,1-2,2,2,2,0,0,1,2-2Zm-11,9.5a2,2,0,1,1,2-2,2,2,0,0,1-2,2Zm11,5.5a2,2,0,1,1,2-2,2,2,0,0,1-2,2Z" transform="translate(0.026 0)" fill="#fff"/>
</svg>
